<svg id="Capa_1" data-name="Capa 1" xmlns="http://www.w3.org/2000/svg" viewBox="0 0 151.78 70"><defs><style>.cls-1{fill:none;}.cls-2{fill:#d3ae06;}.cls-3{fill:#d1d3d4;}.cls-4{fill:#f1f1f2;}.cls-5{fill:#00b6e3;}.cls-6{fill:#ffd126;}.cls-7{fill:#dd313a;}.cls-8{fill:#62ad46;}.cls-9{fill:#39b54a;}.cls-10{fill:#754d29;}.cls-11{fill:#552e25;}.cls-12{fill:#fff;}</style></defs><rect class="cls-1" x="-58.22" y="-45.15" width="578" height="177.36"/><rect class="cls-1" x="-58.22" y="-45.15" width="578" height="177.36"/><path class="cls-2" d="M24.62,37.06v3.13h1.61V36.67h.5v3.52h1.4V39.08h.51v1.11h1.5V37.06a2.77,2.77,0,0,0-1.5-2.46v3.7h-.51V34.4a2.61,2.61,0,0,0-.75-.1,2.82,2.82,0,0,0-.65.08v1.69h-.5V34.55a2.77,2.77,0,0,0-1.61,2.51"/><path class="cls-3" d="M30.92,47.6l-.87.32.51.7a.23.23,0,0,1,0,.25l-.44.92.77-.28Z"/><polygon class="cls-3" points="30.92 44.14 30.38 44.33 30.92 44.53 30.92 44.14"/><polygon class="cls-4" points="31.42 42.04 31.42 44.71 32.77 45.2 32.77 42.04 31.42 42.04"/><polygon class="cls-4" points="23.35 42.04 21.99 42.04 21.99 45.2 23.35 44.71 23.35 42.04"/><path class="cls-3" d="M24.71,47.92l-.86-.32v1.91l.77.28-.44-.92a.25.25,0,0,1,0-.25Z"/><path class="cls-5" d="M24.35,51.09l.4,1.09H30l.4-1.09a.24.24,0,0,1,.23-.17h.27V50l-1.18.43-.08,0a.25.25,0,0,1-.19-.09.24.24,0,0,1,0-.27l.64-1.34-.62-.85a.24.24,0,0,1,0-.22.26.26,0,0,1,.15-.16l.91-.33-.91-.33a.25.25,0,0,1-.17-.23V44.33a.24.24,0,0,1,.11-.2l.06,0,1.35-.5V42h-.27a.25.25,0,0,1-.24-.16L30,40.71H24.75l-.4,1.17a.25.25,0,0,1-.24.16h-.26V43.6l1.35.5.05,0a.24.24,0,0,1,.11.2v2.34a.25.25,0,0,1-.17.23l-.9.33.9.33a.28.28,0,0,1,.16.16.24.24,0,0,1,0,.22l-.62.85.64,1.34a.23.23,0,0,1,0,.27.21.21,0,0,1-.18.09l-.09,0L23.85,50v.88h.26a.26.26,0,0,1,.24.17m1-7.34h0l-.59-.22a1.18,1.18,0,0,0,.43-.11,2.17,2.17,0,0,1,1.73,0,1.1,1.1,0,0,0,1,0,2.14,2.14,0,0,1,.87-.18,2.09,2.09,0,0,1,.86.18,1.24,1.24,0,0,0,.43.11l-.58.22h0l-.06,0,0,0h0l-.06,0a1.58,1.58,0,0,0-.5-.08,1.64,1.64,0,0,0-.67.14,1.62,1.62,0,0,1-1.36,0,1.58,1.58,0,0,0-.66-.14,1.7,1.7,0,0,0-.51.08s0,0-.06,0h0l0,0-.06,0M29,45.81v.55l-.29,0a1.64,1.64,0,0,0-.67.14,1.72,1.72,0,0,1-1.36,0,1.58,1.58,0,0,0-.66-.14l-.29,0v-.55l.29,0a2.09,2.09,0,0,1,.86.18,1.1,1.1,0,0,0,1,0,2.14,2.14,0,0,1,.87-.18l.29,0m-3.76,3.27-.12-.25.29-.39a2,2,0,0,1,.61-.09,2.09,2.09,0,0,1,.86.18,1.1,1.1,0,0,0,1,0,2.14,2.14,0,0,1,.87-.18,2,2,0,0,1,.6.09l.29.39-.12.25-.11,0a1.44,1.44,0,0,0-.66-.14,1.49,1.49,0,0,0-.67.14,1.72,1.72,0,0,1-1.36,0A1.44,1.44,0,0,0,26,48.9a1.49,1.49,0,0,0-.67.14l-.11,0m-.09,2a2.29,2.29,0,0,1,1.73,0,1.1,1.1,0,0,0,1,0,2.17,2.17,0,0,1,.87-.17,2.12,2.12,0,0,1,.86.17,1.66,1.66,0,0,0,.38.11l-.19.52a1.8,1.8,0,0,1-.39-.12,1.6,1.6,0,0,0-.66-.13,1.65,1.65,0,0,0-.67.13,1.62,1.62,0,0,1-1.36,0,1.6,1.6,0,0,0-.66-.13,1.65,1.65,0,0,0-.67.13,1.89,1.89,0,0,1-.38.12l-.19-.52a1.58,1.58,0,0,0,.37-.11"/><polygon class="cls-4" points="33.65 40.71 30.55 40.71 30.83 41.55 33.36 41.55 33.65 40.71"/><path class="cls-6" d="M12.63,26.2a12.16,12.16,0,0,0-1,5.05v9.87A15.63,15.63,0,0,0,17.54,53.4c2.84,2.41,5.81,4.79,8.36,5.87l1.48.63,1.48-.63c2.55-1.08,5.52-3.46,8.36-5.87a15.63,15.63,0,0,0,5.89-12.28V31.25a12.16,12.16,0,0,0-1-5.05,9.15,9.15,0,0,0-2.73-3.43,13.66,13.66,0,0,0-3.7-2,3.17,3.17,0,0,1-2.86,1.89,3.77,3.77,0,0,1-2.93-1.27A4.22,4.22,0,0,1,29,19.59H25.74a3.79,3.79,0,0,1-3.82,3.05,3.14,3.14,0,0,1-2.85-1.89,13.72,13.72,0,0,0-3.71,2,9.15,9.15,0,0,0-2.73,3.43m12.42-3.1v-.94h1.38v.55h.23v-.55H28.1v.55h.24v-.55h1.37v.94a13.35,13.35,0,0,1,7.54,2.43,5.57,5.57,0,0,1,1.69,2.12,8.57,8.57,0,0,1,.67,3.6v9.87A12.12,12.12,0,0,1,35,50.73c-2.5,2.13-5.33,4.42-7.45,5.32l-.12.05-.11-.05c-2.12-.9-5-3.19-7.45-5.32a12.1,12.1,0,0,1-4.67-9.61V31.25a8.73,8.73,0,0,1,.67-3.6,5.5,5.5,0,0,1,1.7-2.12,13.32,13.32,0,0,1,7.53-2.43"/><path class="cls-2" d="M38.77,21.6V19.94a5.19,5.19,0,0,0-5.19-5.18,4.25,4.25,0,0,0-2.81.89l-.23.22-.05.05a3.81,3.81,0,0,0-1,2.63,3.32,3.32,0,0,0,3.34,3.5,2.55,2.55,0,0,0,2.52-2.51,2.46,2.46,0,0,0-2.56-2.42.3.3,0,0,1,0-.59,3,3,0,0,1,3.15,3,2.81,2.81,0,0,1-.07.65,15.51,15.51,0,0,1,2.89,1.41"/><polygon class="cls-7" points="25.86 18.99 28.91 18.99 28.91 11.89 32.73 11.89 32.73 8.84 28.91 8.84 28.91 5.02 25.86 5.02 25.86 8.84 22.04 8.84 22.04 11.89 25.86 11.89 25.86 18.99"/><polygon class="cls-6" points="26.43 27.56 28.33 27.56 28.33 26.56 27.3 26.56 27.3 26.05 28.33 26.05 28.33 24.65 29.21 24.65 29.21 24.43 26.55 24.43 26.55 23.92 29.21 23.92 29.21 22.65 28.84 22.65 28.84 23.21 27.6 23.21 27.6 22.65 27.16 22.65 27.16 23.21 25.92 23.21 25.92 22.65 25.55 22.65 25.55 24.65 26.43 24.65 26.43 27.56"/><polygon class="cls-6" points="22.26 25.15 22.26 27.56 23.27 27.56 23.27 28.26 24.96 28.26 24.96 27.56 25.93 27.56 25.93 26.83 23.68 26.83 23.68 26.33 25.93 26.33 25.93 25.15 25.55 25.15 25.55 25.7 24.32 25.7 24.32 25.15 23.88 25.15 23.88 25.7 22.64 25.7 22.64 25.15 22.26 25.15"/><path class="cls-8" d="M20.2,37.12l1.56-1.91V32L21,31.41V27.56h.77V24.65h1.38v.55h.24v-.55h1.44v.55h.23V23.69A12.75,12.75,0,0,0,17.88,26a5,5,0,0,0-1.52,1.9,8,8,0,0,0-.62,3.35v8.94H20.2Z"/><path class="cls-9" d="M27.38,55.45a21.85,21.85,0,0,0,4.26-2.77H23.12a22.15,22.15,0,0,0,4.26,2.77"/><path class="cls-5" d="M21.49,49.17l-1.35-.49-.05,0a.26.26,0,0,1-.11-.21V46.11a.27.27,0,0,1,.16-.24l.91-.33-.91-.33a.24.24,0,0,1-.15-.16.24.24,0,0,1,0-.22l.61-.8L20,42.64a.26.26,0,0,1,.32-.34l1.17.43V42h-.26a.24.24,0,0,1-.24-.16l-.4-1.17H15.74v.42a11.53,11.53,0,0,0,4.46,9.16l.76.64h.53Zm-4.66-5.12h0a2.5,2.5,0,0,1-.07-.26h0l-.06-.26a1.32,1.32,0,0,0,.4-.11,2.14,2.14,0,0,1,.87-.18,2.09,2.09,0,0,1,.86.18,1.25,1.25,0,0,0,.48.11,1.21,1.21,0,0,0,.48-.11l.12,0,.23.5-.15.06a1.62,1.62,0,0,1-1.36,0,1.58,1.58,0,0,0-.66-.14,1.64,1.64,0,0,0-.67.14,1.76,1.76,0,0,1-.47.13m2.76,2.06v.49l-.28,0a1.73,1.73,0,0,1-.68-.14,1.58,1.58,0,0,0-.66-.14h-.21l-.27-.51a2.21,2.21,0,0,1,.48-.05,2.09,2.09,0,0,1,.86.18,1.25,1.25,0,0,0,.48.11,1.19,1.19,0,0,0,.29,0,.15.15,0,0,0,0,.07"/><polygon class="cls-4" points="23.35 47.57 21.99 48.07 21.99 50.92 23.35 50.92 23.35 47.57"/><path class="cls-5" d="M34.56,40.7h-.39l-.39,1.17a.25.25,0,0,1-.24.16h-.27v.69l1.18-.43a.25.25,0,0,1,.27.07.24.24,0,0,1,0,.27L34.12,44l.61.8a.22.22,0,0,1,0,.22.22.22,0,0,1-.15.16l-.91.33.91.34a.23.23,0,0,1,.16.23v2.33a.28.28,0,0,1-.1.21l-.06,0-1.35.49v1.75h.53l.76-.64A11.53,11.53,0,0,0,39,41.12V40.7ZM37,46.35H36.8a1.64,1.64,0,0,0-.67.14,1.73,1.73,0,0,1-.68.14l-.28,0v-.49a.15.15,0,0,0,0-.07,1.27,1.27,0,0,0,.29,0,1.21,1.21,0,0,0,.48-.11,2.21,2.21,0,0,1,1.34-.13c-.08.17-.17.34-.26.51m1.06-2.83-.06.26h0l-.06.26a2,2,0,0,1-.48-.13,1.58,1.58,0,0,0-.66-.14,1.64,1.64,0,0,0-.67.14,1.62,1.62,0,0,1-1.36,0l-.15-.06.23-.49.12,0a1.1,1.1,0,0,0,1,0,2.17,2.17,0,0,1,1.73,0,1.38,1.38,0,0,0,.41.11"/><path class="cls-4" d="M23.94,51.42H21.56l.43.36.49.39h1.73Z"/><polygon class="cls-4" points="31.42 47.57 31.42 50.92 32.77 50.92 32.77 48.07 31.42 47.57"/><path class="cls-4" d="M30.83,51.42l-.28.75h1.74l.48-.39.43-.36Z"/><path class="cls-9" d="M38.41,27.9A4.91,4.91,0,0,0,36.88,26a12.75,12.75,0,0,0-7.17-2.31V25.2H30v-.55h1.43v.55h.24v-.55H33v2.91h.78v3.85L33,32v3.23l1.56,1.91v3.07H39V31.25a8.22,8.22,0,0,0-.61-3.35"/><polygon class="cls-3" points="23.85 44.14 23.85 44.53 24.38 44.33 23.85 44.14"/><polygon class="cls-4" points="24.86 44.69 20.48 46.28 20.48 48.08 24.86 46.49 24.86 44.69"/><path class="cls-3" d="M34.05,43l-.78.29v1.9l.86-.31-.5-.65a.23.23,0,0,1,0-.25Z"/><rect class="cls-2" x="29.27" y="31.24" width="0.85" height="1.29"/><rect class="cls-2" x="24.64" y="31.24" width="0.85" height="1.29"/><path class="cls-6" d="M33.28,29.1v-1H32v.7H29.3v-.7H25.46v.7H22.77v-.7H21.49v3.09l.78.58v3.66l-1.57,1.9v2.9h3.42V39.11H21.5v-.5h2.62V37.16H22.68v-.5h1.47a3.26,3.26,0,0,1,6.49.4v3.13h3.42V39.11H32.88v-.5h1.18V37.29l-.1-.13H32.28v-.5h1.26l-1-1.27V35.3H30.81v-.49H32.5V33.4H30.21V33h-1v.37H27.3v-.5h1.47V31.5H27.3V31h1.47v-.26h1.85V32.9H32.5V31.73l.31-.23H31.27V31h2V29.6H29.89v-.5Zm-1.84,9.51h.94v.5h-.94ZM26,33H24.5v.37H23.1v-.5h1V31.5h-1V31h1v-.26H26Zm3.26-3.43H27.3v-.5h1.95Z"/><path class="cls-6" d="M28.83,25.15v2.41h1v.7h1.69v-.7h1v-.73h-.85v-.5h.85V25.15h-.38v.55H30.88v-.55h-.43v.55H29.21v-.55Zm.94,1.18h1.14v.5H29.77Z"/><path class="cls-2" d="M33.58,14.17a5.78,5.78,0,0,1,5.57,4.24,6.19,6.19,0,0,1,1.42-2.1,5.41,5.41,0,0,0-8.17-2,5.91,5.91,0,0,1,1.18-.12"/><path class="cls-2" d="M22,17.12a2.46,2.46,0,0,0-2.56,2.42,2.55,2.55,0,0,0,2.52,2.51,3.32,3.32,0,0,0,3.35-3.5,3.84,3.84,0,0,0-1-2.64l-.06,0L24,15.65a4.23,4.23,0,0,0-2.81-.89A5.18,5.18,0,0,0,16,19.94V21.6a15.42,15.42,0,0,1,2.88-1.41,3.5,3.5,0,0,1-.07-.65,3,3,0,0,1,3.15-3,.3.3,0,1,1,0,.59"/><path class="cls-2" d="M21.18,14.17a5.83,5.83,0,0,1,1.18.12,5.51,5.51,0,0,0-3.18-1.1,5.57,5.57,0,0,0-5,3.12,6,6,0,0,1,1.42,2.1,5.8,5.8,0,0,1,5.57-4.24"/><polygon class="cls-4" points="24.22 40.71 21.12 40.71 21.4 41.55 23.93 41.55 24.22 40.71"/><polygon class="cls-3" points="21.49 48.25 20.96 48.44 21.49 48.64 21.49 48.25"/><path class="cls-3" d="M20.64,44.86l.85.31v-1.9L20.71,43l.45,1a.23.23,0,0,1,0,.25Z"/><polygon class="cls-3" points="33.81 48.44 33.27 48.25 33.27 48.64 33.81 48.44"/><polygon class="cls-4" points="34.28 46.28 29.91 44.69 29.91 46.49 34.28 48.08 34.28 46.28"/><path class="cls-2" d="M29,61.15V59.86l-1.32.56V62.1a4.4,4.4,0,0,0,4.41,4.4,4.18,4.18,0,0,0,2.27-.71,4.91,4.91,0,0,1-.67,0A4.7,4.7,0,0,1,29,61.15"/><polygon class="cls-10" points="27.38 60.23 27.38 60.23 27.38 60.23 27.38 60.22 27.38 60.23"/><path class="cls-2" d="M25.77,61.15a4.7,4.7,0,0,1-4.69,4.69,5.06,5.06,0,0,1-.68,0,4.19,4.19,0,0,0,2.28.71,4.41,4.41,0,0,0,4.41-4.4V60.42l-1.32-.56Z"/><path class="cls-2" d="M34.32,63.94a2.49,2.49,0,0,1-2.59-2.48A2.58,2.58,0,0,1,33,59.25a35.35,35.35,0,0,0,4-2.82c5.23-4.32,8-9.4,8-14.7V29.61a5.06,5.06,0,0,1,1.68-4l4.08-4.07-7.28-7.27L41.1,16.61a5.33,5.33,0,0,0-1.74,4.5v.76h0V22l.4.3A9.72,9.72,0,0,1,42.67,26a12.67,12.67,0,0,1,1,5.29v9.87a16.19,16.19,0,0,1-6.1,12.73,40.89,40.89,0,0,1-8,5.74v1.56a4.11,4.11,0,0,0,4.1,4.1,3.33,3.33,0,0,0,2.22-.71l.18-.17h0a3,3,0,0,0,.82-2.12,2.61,2.61,0,0,0-2.63-2.75,1.85,1.85,0,0,0-.9.23l-.1.06h0a2,2,0,0,0-1,1.67,1.92,1.92,0,0,0,2,1.89.3.3,0,0,1,0,.59"/><path class="cls-2" d="M25.18,61.15V59.59a41.06,41.06,0,0,1-8-5.74,16.19,16.19,0,0,1-6.1-12.73V31.25a12.83,12.83,0,0,1,1-5.29A9.82,9.82,0,0,1,15,22.3l.4-.3v-.89a5.33,5.33,0,0,0-1.74-4.5l-2.37-2.36L4,21.52l4.07,4.07a5.06,5.06,0,0,1,1.68,4V41.73c0,5.3,2.77,10.39,8,14.7a35.35,35.35,0,0,0,4,2.82A2.57,2.57,0,0,1,23,61.46a2.36,2.36,0,0,1-.89,1.9,2.79,2.79,0,0,1-1.7.58.3.3,0,1,1,0-.59,1.91,1.91,0,0,0,2-1.89,2,2,0,0,0-1-1.67h0l-.1-.07a1.93,1.93,0,0,0-.9-.22,2.61,2.61,0,0,0-2.63,2.75,3,3,0,0,0,.82,2.12h0c.05.06.11.11.17.17a3.38,3.38,0,0,0,2.22.71,4.11,4.11,0,0,0,4.11-4.1"/><path class="cls-9" d="M50.07,33.53a1,1,0,0,0-.16,1.21l1-1a.09.09,0,0,1,.06,0h0l.06,0,.25.25a.09.09,0,0,1,0,.13l-1,1a1.06,1.06,0,0,0,.5.13,1,1,0,0,0,.72-.31,1,1,0,0,0,.29-.71v-1h-1a1,1,0,0,0-.71.3"/><path class="cls-9" d="M47,34.28a1,1,0,0,0,.31.71,1,1,0,0,0,1.22.15l-1-1a.08.08,0,0,1,0-.06.11.11,0,0,1,0-.06l.25-.26a.1.1,0,0,1,.07,0s.05,0,.06,0l1,1a1,1,0,0,0,.12-.49,1,1,0,0,0-1-1H47Z"/><path class="cls-9" d="M47.12,45.75l.31-.19,0,0a.08.08,0,0,1,.07.05l.78,1.24a1,1,0,0,0,.12-1.27,1,1,0,0,0-.66-.47l-1-.24-.23,1a1,1,0,0,0,.13.8,1,1,0,0,0,.9.49.84.84,0,0,0,.31-.05l-.77-1.25a.08.08,0,0,1,0-.07.1.1,0,0,1,0,0"/><path class="cls-9" d="M50.4,45.71a1,1,0,0,0-.56.17,1,1,0,0,0-.45,1.2l1.24-.78a.06.06,0,0,1,0,0,.12.12,0,0,1,.08,0l.19.31a.07.07,0,0,1,0,.06.07.07,0,0,1,0,.06l-1.25.78a1.06,1.06,0,0,0,.73.3,1.1,1.1,0,0,0,.56-.16,1.05,1.05,0,0,0,.47-.66l.23-1-1-.24a1,1,0,0,0-.24,0"/><path class="cls-9" d="M49.06,42.75a1,1,0,0,0-.29-.75,1,1,0,0,0-.74-.33l-1.06,0,0,1.06a1.05,1.05,0,0,0,.3.75,1.06,1.06,0,0,0,.74.33h0a1.07,1.07,0,0,0,.52-.14l-1-1.07a.09.09,0,0,1,0-.06.09.09,0,0,1,0-.07l.26-.24a.09.09,0,0,1,.06,0,.09.09,0,0,1,.07,0l1,1.06a.93.93,0,0,0,.15-.52"/><path class="cls-9" d="M50.93,41.73A1.06,1.06,0,0,0,50,43.29l1.06-1a.09.09,0,0,1,.06,0,.09.09,0,0,1,.07,0l.24.26a.08.08,0,0,1,0,.12l-1.06,1a1.1,1.1,0,0,0,.53.16h0a1.06,1.06,0,0,0,.73-.3,1,1,0,0,0,.32-.74l0-1.05Z"/><path class="cls-9" d="M41.06,60.33H41a1.13,1.13,0,0,0-.73.27,1.09,1.09,0,0,0-.36.51l1.6.15.06,0a.07.07,0,0,1,0,.06l0,.36a.09.09,0,0,1-.09.08h0l-1.6-.15a1.09,1.09,0,0,0,.25.58,1.15,1.15,0,0,0,.78.42H41a1.12,1.12,0,0,0,.73-.26l.89-.74-.73-.89a1.18,1.18,0,0,0-.78-.41"/><path class="cls-9" d="M39.84,58.33l-.73-.89-.89.73a1.15,1.15,0,0,0,.36,2l.16-1.61a.11.11,0,0,1,.09-.08h0l.36,0,.06,0a.14.14,0,0,1,0,.07l-.16,1.59a1.15,1.15,0,0,0,1-1,1.1,1.1,0,0,0-.26-.84"/><path class="cls-9" d="M41.48,55l-.76.8a1.17,1.17,0,0,0-.31.79,1.15,1.15,0,0,0,.35.78,1.18,1.18,0,0,0,.53.28l0-1.55a.09.09,0,0,1,0-.06.07.07,0,0,1,.06,0h.36a.11.11,0,0,1,.09.09l0,1.54a1.13,1.13,0,0,0,.8-1.09,1.14,1.14,0,0,0-.34-.78Z"/><path class="cls-9" d="M43.72,57.59h0a1.11,1.11,0,0,0-1,.85l1.54,0a.09.09,0,0,1,.07,0,.11.11,0,0,1,0,.06v.36s0,.09-.09.09l-1.54,0a1.09,1.09,0,0,0,1.07.82h0a1.12,1.12,0,0,0,.77-.34l.76-.8-.8-.77a1.12,1.12,0,0,0-.76-.3"/><path class="cls-9" d="M43.56,53.43l.36,0h0l0,0s0,0,0,.06L44.2,55a1.1,1.1,0,0,0,.68-1.15,1.07,1.07,0,0,0-.41-.73l-.87-.67-.67.87a1.08,1.08,0,0,0-.22.8,1.12,1.12,0,0,0,.42.73,1.07,1.07,0,0,0,.54.22l-.19-1.51a.09.09,0,0,1,.08-.1"/><path class="cls-9" d="M46.17,54.7H46a1.06,1.06,0,0,0-.72.41,1.08,1.08,0,0,0-.22.53l1.51-.19h0s0,0,0,0a.09.09,0,0,1,0,.06l0,.35a.08.08,0,0,1-.08.1l-1.51.2a1.08,1.08,0,0,0,.35.47,1.07,1.07,0,0,0,.67.23h.14a1.06,1.06,0,0,0,.72-.41l.67-.87-.86-.67a1.07,1.07,0,0,0-.67-.23"/><path class="cls-7" d="M48.11,50.5l.23-.26a1.17,1.17,0,0,0,.17-1.31,1.2,1.2,0,0,0-.89.62,2,2,0,0,0-.1.26l-.08.33.11,0a1,1,0,0,1,.56.34"/><path class="cls-7" d="M45.73,51.75a1.35,1.35,0,0,0,.28,0l.33-.1a1,1,0,0,1-.06-.65l0-.11L46,50.78a1,1,0,0,0-.24,0h0a1.15,1.15,0,0,0-.94.53,1.16,1.16,0,0,0,.93.46h0"/><path class="cls-7" d="M48.94,50.64h0a.84.84,0,0,0-.27,0l-.33.1a1,1,0,0,1,.06.65l0,.11.33.07.24,0h0a1.15,1.15,0,0,0,.94-.53,1.17,1.17,0,0,0-.93-.46"/><path class="cls-7" d="M48.41,52.07l-.25-.24a1,1,0,0,1-.28.26,1.07,1.07,0,0,1-.36.14l.1.33a1,1,0,0,0,.12.25,1.17,1.17,0,0,0,.93.55,1.11,1.11,0,0,0-.26-1.29"/><path class="cls-7" d="M47,52.84a1.14,1.14,0,0,0,.09-.26l.09-.33-.11,0a1.07,1.07,0,0,1-.56-.33h0l-.22.25a1.31,1.31,0,0,0-.17.24,1.21,1.21,0,0,0,0,1.08,1.22,1.22,0,0,0,.89-.62"/><path class="cls-6" d="M47.31,51.72a.54.54,0,0,0,.28-.08.55.55,0,0,0,.23-.33.52.52,0,0,0-.06-.39l-.06-.07a.55.55,0,0,0-.27-.17h-.12a.5.5,0,0,0-.27.08.51.51,0,0,0-.17.72.52.52,0,0,0,.33.23l.11,0"/><path class="cls-7" d="M46,50.1a1.24,1.24,0,0,0,.18.22l.24.24a1.24,1.24,0,0,1,.29-.27,1.42,1.42,0,0,1,.36-.14L47,49.83a2,2,0,0,0-.11-.26A1.2,1.2,0,0,0,46,49,1.19,1.19,0,0,0,46,50.1"/><path class="cls-7" d="M48.61,37.86l0,0a1,1,0,0,1,.51-.26l-.07-.26a.85.85,0,0,0-.09-.22,1,1,0,0,0-.75-.52,1,1,0,0,0,0,.91,1.43,1.43,0,0,0,.14.2Z"/><path class="cls-7" d="M50.07,37.89l.19-.19a.9.9,0,0,0,.15-.19,1,1,0,0,0,.07-.91,1,1,0,0,0-.77.48.88.88,0,0,0-.1.22l-.08.26a.93.93,0,0,1,.54.33"/><path class="cls-7" d="M48.62,39.18l0,0-.19.19a.9.9,0,0,0-.15.19,1,1,0,0,0-.07.9,1,1,0,0,0,.77-.48.88.88,0,0,0,.1-.22l.08-.26a1,1,0,0,1-.5-.27"/><path class="cls-7" d="M48.16,38.1a1,1,0,0,0-.24,0h0a1,1,0,0,0-.8.39,1,1,0,0,0,.8.43h0a.83.83,0,0,0,.22,0l.26-.06a1.06,1.06,0,0,1,0-.31,1.65,1.65,0,0,1,.06-.32Z"/><path class="cls-7" d="M49.65,40a1,1,0,0,0,.75.51,1,1,0,0,0,0-.91,1.33,1.33,0,0,0-.14-.19l-.19-.2,0,.05a1,1,0,0,1-.51.25l.07.26a.92.92,0,0,0,.09.23"/><path class="cls-7" d="M50.73,39h0a1,1,0,0,0,.8-.4,1,1,0,0,0-.8-.42h0a.82.82,0,0,0-.22,0l-.26.06a1.13,1.13,0,0,1,0,.32,1.08,1.08,0,0,1-.07.31l.26.07.24,0"/><path class="cls-6" d="M49.33,38.94a.4.4,0,0,0,.29-.12.44.44,0,0,0,.14-.3.43.43,0,0,0-.12-.31.46.46,0,0,0-.31-.13h0a.44.44,0,0,0-.4.42.42.42,0,0,0,.12.3.41.41,0,0,0,.3.14Z"/><path class="cls-6" d="M48.88,30.24a.39.39,0,0,0,.2.25.37.37,0,0,0,.21.06l.11,0a.35.35,0,0,0,.25-.19A.45.45,0,0,0,49.7,30a.43.43,0,0,0-.2-.26.39.39,0,0,0-.21-.06h0l-.07,0a.43.43,0,0,0-.26.2.39.39,0,0,0,0,.32"/><path class="cls-7" d="M50.11,29.22l-.19.18a1,1,0,0,1,.31.54l.25-.07.22-.1a1,1,0,0,0,.49-.74.89.89,0,0,0-.39-.09,1,1,0,0,0-.5.14.85.85,0,0,0-.19.14"/><path class="cls-7" d="M50.7,30.48a.85.85,0,0,0-.22-.09l-.25-.08a1,1,0,0,1-.11.3.91.91,0,0,1-.2.24l.19.18a.9.9,0,0,0,.19.15,1.06,1.06,0,0,0,.5.13,1,1,0,0,0,.39-.08,1,1,0,0,0-.49-.75"/><path class="cls-7" d="M49,29.2a1,1,0,0,1,.25,0,.85.85,0,0,1,.31.06l.06-.26a1,1,0,0,0,0-.23,1,1,0,0,0-.4-.8,1,1,0,0,0-.38,1l.07.26.06,0"/><path class="cls-7" d="M48.27,29.08a.93.93,0,0,0-.89,0,1,1,0,0,0,.49.75,1.45,1.45,0,0,0,.22.09l.25.07a1,1,0,0,1,.11-.29,1,1,0,0,1,.2-.25l-.19-.18a1.33,1.33,0,0,0-.19-.14"/><path class="cls-7" d="M49.29,32.33a1,1,0,0,0,.4-.8,1,1,0,0,0,0-.24L49.6,31l-.06,0-.17,0h-.08A1.06,1.06,0,0,1,49,31l-.07.25a1,1,0,0,0,0,.24,1,1,0,0,0,.4.8"/><path class="cls-7" d="M48.09,30.39a.85.85,0,0,0-.22.09,1,1,0,0,0-.49.75,1.1,1.1,0,0,0,.4.08,1.13,1.13,0,0,0,.5-.13.84.84,0,0,0,.18-.15l.19-.18a1,1,0,0,1-.31-.54Z"/><path class="cls-9" d="M5.78,34.26a1,1,0,0,0,.13.49l1-1a.07.07,0,0,1,.06,0l.07,0,.25.26a.08.08,0,0,1,0,.12l-1,1a1,1,0,0,0,.52.14A1,1,0,0,0,7.5,35a1,1,0,0,0,.31-.71v-1H6.77a1.05,1.05,0,0,0-.69.29,1,1,0,0,0-.3.72"/><path class="cls-9" d="M4,35.26a1.06,1.06,0,0,0,.5-.13l-1-1a.09.09,0,0,1,0-.13l.25-.25.07,0a.07.07,0,0,1,.06,0l1,1A1,1,0,0,0,4,33.23H3v1a1,1,0,0,0,.3.71,1,1,0,0,0,.72.31"/><path class="cls-9" d="M3.84,46.75a.1.1,0,0,1,0,0,.22.22,0,0,1,0-.08l.19-.3a.12.12,0,0,1,.08,0l0,0,1.24.78a1.06,1.06,0,0,0-1-1.37,1,1,0,0,0-.24,0L3.1,46l.24,1a1,1,0,0,0,.46.66,1.1,1.1,0,0,0,.56.16,1.06,1.06,0,0,0,.73-.3Z"/><path class="cls-9" d="M8,44.85l-1,.24a1.05,1.05,0,0,0-.54,1.74l.78-1.24a.1.1,0,0,1,.08-.05l0,0,.3.19a.1.1,0,0,1,0,0,.08.08,0,0,1,0,.07l-.78,1.25a1.13,1.13,0,0,0,.32.05,1,1,0,0,0,.89-.49,1.07,1.07,0,0,0,.14-.8Z"/><path class="cls-9" d="M6.86,42.21a.11.11,0,0,1,.07,0,.07.07,0,0,1,.06,0l.26.24a.09.09,0,0,1,0,.07.14.14,0,0,1,0,.06l-1,1.07a1,1,0,0,0,.51.14h0a1,1,0,0,0,1-1.07l0-1.06-1.06,0A1.06,1.06,0,0,0,6,42a1,1,0,0,0-.29.75.93.93,0,0,0,.15.52Z"/><path class="cls-9" d="M3.83,43.85h0a1.1,1.1,0,0,0,.53-.16l-1.06-1a.06.06,0,0,1,0-.06.07.07,0,0,1,0-.06l.25-.26a.07.07,0,0,1,.12,0l1.06,1A1,1,0,0,0,4.57,42a1.06,1.06,0,0,0-.73-.3l-1.08,0,0,1.06a1.06,1.06,0,0,0,1.05,1"/><path class="cls-9" d="M16.55,58.17l-.89-.73-.74.89a1.1,1.1,0,0,0-.26.84,1.15,1.15,0,0,0,1,1l-.15-1.59a.06.06,0,0,1,0-.07.06.06,0,0,1,.06,0l.35,0h0a.09.09,0,0,1,.09.08l.16,1.6A1.15,1.15,0,0,0,17,59a1.2,1.2,0,0,0-.41-.78"/><path class="cls-9" d="M13.35,61.78a.08.08,0,0,1-.09-.08l0-.36a.14.14,0,0,1,0-.06.09.09,0,0,1,.06,0l1.6-.15a1.14,1.14,0,0,0-.35-.51,1.15,1.15,0,0,0-.73-.27H13.7a1.2,1.2,0,0,0-.78.41l-.73.89.89.74a1.14,1.14,0,0,0,.73.26h.11a1.13,1.13,0,0,0,.78-.42,1.1,1.1,0,0,0,.26-.58l-1.6.15h0"/><path class="cls-9" d="M10.52,58.43a.07.07,0,0,1,.06,0l1.54,0a1.11,1.11,0,0,0-1-.85h0a1.14,1.14,0,0,0-.77.3l-.8.77.76.8a1.1,1.1,0,0,0,.78.34h0A1.1,1.1,0,0,0,12.11,59l-1.54,0a.09.09,0,0,1-.09-.09v-.36a.07.07,0,0,1,0-.06"/><path class="cls-9" d="M14,57.41a1.14,1.14,0,0,0,.34-.78,1.16,1.16,0,0,0-.3-.79l-.77-.8-.8.76a1.11,1.11,0,0,0-.35.78,1.13,1.13,0,0,0,.81,1.09l0-1.54a.07.07,0,0,1,0-.06.09.09,0,0,1,.06,0h.36a.09.09,0,0,1,.07,0,.14.14,0,0,1,0,.06l0,1.55a1.3,1.3,0,0,0,.53-.28"/><path class="cls-9" d="M8.1,56a.08.08,0,0,1-.08-.1l.05-.35a.06.06,0,0,1,0-.06.07.07,0,0,1,.06,0h0l1.51.19a1.18,1.18,0,0,0-.22-.53,1.11,1.11,0,0,0-.73-.41H8.59a1.11,1.11,0,0,0-.67.23l-.86.67.67.87a1.08,1.08,0,0,0,.73.41h.13a1.07,1.07,0,0,0,.67-.23,1.14,1.14,0,0,0,.35-.47Z"/><path class="cls-9" d="M11.63,54.82a1.12,1.12,0,0,0,.42-.73,1,1,0,0,0-.22-.8l-.67-.87-.87.67a1.15,1.15,0,0,0-.41.73A1.11,1.11,0,0,0,10.56,55l.19-1.51a.09.09,0,0,1,0-.06l.06,0h0l.35,0a.08.08,0,0,1,.08.1L11.09,55a1,1,0,0,0,.54-.22"/><path class="cls-7" d="M7.88,49.57a1.23,1.23,0,0,0-.12.26l-.11.32A1,1,0,0,1,8,50.3a.91.91,0,0,1,.29.26l.24-.24a1.68,1.68,0,0,0,.18-.21A1.18,1.18,0,0,0,8.81,49a1.17,1.17,0,0,0-.93.54"/><path class="cls-7" d="M9.07,50.76H9a1,1,0,0,0-.24,0l-.34.07a.2.2,0,0,1,0,.11,1,1,0,0,1-.06.65l.33.1a1.45,1.45,0,0,0,.28,0h0a1.18,1.18,0,0,0,.94-.46,1.16,1.16,0,0,0-.94-.53"/><path class="cls-6" d="M7.17,51.63a.49.49,0,0,0,.28.09l.12,0A.53.53,0,0,0,8,51.08a.52.52,0,0,0-.23-.33.57.57,0,0,0-.28-.08l-.12,0a.5.5,0,0,0-.27.16.18.18,0,0,0,0,.07.48.48,0,0,0-.07.39.5.5,0,0,0,.23.32"/><path class="cls-7" d="M7.32,50.14l-.08-.33a.82.82,0,0,0-.1-.26,1.18,1.18,0,0,0-.89-.62,1.17,1.17,0,0,0,.17,1.31l.23.26a1.09,1.09,0,0,1,.56-.34l.11,0"/><path class="cls-7" d="M7.76,52.84a1.2,1.2,0,0,0,.89.62,1.18,1.18,0,0,0,0-1.08,2,2,0,0,0-.16-.24l-.23-.25h0a1.08,1.08,0,0,1-.55.33l-.11,0,.08.33a.82.82,0,0,0,.1.26"/><path class="cls-7" d="M6.45,51.54a.23.23,0,0,1,0-.11,1,1,0,0,1,.06-.65l-.33-.1a1.45,1.45,0,0,0-.28,0h0a1.18,1.18,0,0,0-.94.46,1.16,1.16,0,0,0,.94.53h0l.24,0Z"/><path class="cls-7" d="M7.25,52.23a.93.93,0,0,1-.36-.14,1,1,0,0,1-.29-.26l-.25.24a1.73,1.73,0,0,0-.17.21,1.18,1.18,0,0,0-.09,1.08A1.18,1.18,0,0,0,7,52.81a1,1,0,0,0,.12-.25Z"/><path class="cls-7" d="M6.62,38.86l.22,0h0a1,1,0,0,0,.81-.43,1,1,0,0,0-.8-.39h0a1,1,0,0,0-.24,0l-.26.07a.87.87,0,0,1,.06.32,1.06,1.06,0,0,1,0,.31Z"/><path class="cls-7" d="M4.25,38.15a.78.78,0,0,0-.22,0H4a1,1,0,0,0-.8.42A1,1,0,0,0,4,39H4l.24,0,.26-.07a.81.81,0,0,1-.06-.31.86.86,0,0,1,0-.32Z"/><path class="cls-7" d="M4.29,36.6a1,1,0,0,0,.06.91.9.9,0,0,0,.15.19l.19.19a.93.93,0,0,1,.55-.33l-.09-.26a.85.85,0,0,0-.09-.22,1,1,0,0,0-.77-.48"/><path class="cls-7" d="M5.82,39.93a1,1,0,0,0,.77.48,1,1,0,0,0-.07-.9.9.9,0,0,0-.15-.19l-.19-.19,0,0a1.08,1.08,0,0,1-.5.28l.08.25a1.47,1.47,0,0,0,.1.22"/><path class="cls-7" d="M5.76,37.07a.85.85,0,0,0-.09.22l-.07.26a1,1,0,0,1,.51.26l0,0,.18-.2a1.43,1.43,0,0,0,.14-.2,1,1,0,0,0,0-.91,1,1,0,0,0-.75.52"/><path class="cls-6" d="M5.45,38.94a.41.41,0,0,0,.3-.14.42.42,0,0,0,.12-.3.43.43,0,0,0-.39-.42H5.43a.42.42,0,0,0-.3.13.43.43,0,0,0,0,.61.42.42,0,0,0,.3.12Z"/><path class="cls-7" d="M5.11,40a.92.92,0,0,0,.09-.23l.07-.26a1,1,0,0,1-.5-.25l0-.05-.18.2a.62.62,0,0,0-.14.19,1,1,0,0,0,0,.91A1,1,0,0,0,5.11,40"/><path class="cls-7" d="M4.06,29.77l.22.1.25.07a.92.92,0,0,1,.32-.54l-.2-.18a.59.59,0,0,0-.18-.14,1,1,0,0,0-.5-.14.93.93,0,0,0-.4.09,1,1,0,0,0,.49.74"/><path class="cls-7" d="M6.31,29.65a1,1,0,0,1,.11.29l.25-.07a1.45,1.45,0,0,0,.22-.09A1,1,0,0,0,7.38,29,1,1,0,0,0,7,29a1,1,0,0,0-.5.13,1.33,1.33,0,0,0-.19.14l-.19.18a.82.82,0,0,1,.2.25"/><path class="cls-6" d="M5.11,30.34a.38.38,0,0,0,.26.19l.11,0a.42.42,0,0,0,.21-.06.39.39,0,0,0,.2-.25.44.44,0,0,0,0-.32.41.41,0,0,0-.25-.2l-.08,0h0a.37.37,0,0,0-.21.06.43.43,0,0,0-.2.26.4.4,0,0,0,0,.32"/><path class="cls-7" d="M5.85,31.29,5.79,31a1.13,1.13,0,0,1-.32.05H5.4l-.17,0-.06,0-.07.25a1,1,0,0,0,.38,1,1,1,0,0,0,.4-.8,1,1,0,0,0,0-.24"/><path class="cls-7" d="M4.46,31.18A.9.9,0,0,0,4.65,31l.19-.18a1.16,1.16,0,0,1-.2-.24,1,1,0,0,1-.11-.3l-.25.07-.22.1a1,1,0,0,0-.49.75,1.1,1.1,0,0,0,.4.08,1.05,1.05,0,0,0,.49-.13"/><path class="cls-7" d="M5.48,29.17a1.07,1.07,0,0,1,.25,0l.06,0L5.85,29a1,1,0,0,0,0-.23,1,1,0,0,0-.4-.8,1,1,0,0,0-.41.8,1,1,0,0,0,0,.23l.07.26a.81.81,0,0,1,.31,0"/><path class="cls-7" d="M6.3,31a.9.9,0,0,0,.19.15,1.06,1.06,0,0,0,.5.13,1,1,0,0,0,.39-.08,1,1,0,0,0-.49-.75.85.85,0,0,0-.22-.09l-.25-.08a1,1,0,0,1-.31.54Z"/><path class="cls-11" d="M3,31.34v.15a.1.1,0,0,0,0,.08l.13.07a1.59,1.59,0,0,0,.77.21,1.47,1.47,0,0,0,.58-.12,1.54,1.54,0,0,0,.75,1.13l.13.07h.09l.13-.07a1.54,1.54,0,0,0,.75-1.12,1.7,1.7,0,0,0,.58.11,1.46,1.46,0,0,0,.77-.21l.13-.07a.1.1,0,0,0,0-.08v-.14a1.52,1.52,0,0,0-.6-1.22,1.53,1.53,0,0,0,.6-1.22v-.15a.08.08,0,0,0,0-.07l-.12-.08a1.62,1.62,0,0,0-.78-.2,1.7,1.7,0,0,0-.58.11,1.5,1.5,0,0,0-.75-1.12l-.13-.08H5.43l-.12.08a1.51,1.51,0,0,0-.76,1.12A1.43,1.43,0,0,0,4,28.41a1.58,1.58,0,0,0-.77.2l-.12.07a.11.11,0,0,0-.05.08v.14a1.49,1.49,0,0,0,.59,1.22A1.54,1.54,0,0,0,3,31.34M6.3,29.22a1.33,1.33,0,0,1,.19-.14A1,1,0,0,1,7,29a.9.9,0,0,1,.4.08,1,1,0,0,1-.49.75.85.85,0,0,1-.22.09l-.25.07a1,1,0,0,0-.11-.29.82.82,0,0,0-.2-.25Zm.12,1.09.25.08a.85.85,0,0,1,.22.09,1,1,0,0,1,.49.75,1,1,0,0,1-.89-.05A.9.9,0,0,1,6.3,31l-.19-.18a1,1,0,0,0,.31-.54m-1,2a1,1,0,0,1-.4-.8,1,1,0,0,1,0-.24L5.17,31h.06l.17,0h.07A1.13,1.13,0,0,0,5.79,31l.06.25a1,1,0,0,1-.38,1m0-4.4a1,1,0,0,1,.4.8,1,1,0,0,1,0,.23l-.06.26-.06,0-.25,0a.81.81,0,0,0-.31,0L5.1,29a1,1,0,0,1,0-.23,1,1,0,0,1,.41-.8M5.07,30a.43.43,0,0,1,.2-.26.36.36,0,0,1,.2-.06h0l.08,0a.39.39,0,0,1,.25.2.44.44,0,0,1,0,.32.39.39,0,0,1-.2.25.42.42,0,0,1-.21.06l-.11,0a.38.38,0,0,1-.26-.19.4.4,0,0,1,0-.32m-1.5-1a.93.93,0,0,1,.4-.09,1,1,0,0,1,.5.14,1.24,1.24,0,0,1,.18.14l.2.18a.92.92,0,0,0-.32.54l-.25-.07-.22-.09A1,1,0,0,1,3.57,29m.49,1.45a.85.85,0,0,1,.22-.09l.25-.08a1.08,1.08,0,0,0,.11.3.91.91,0,0,0,.2.24L4.65,31a.7.7,0,0,1-.19.15,1.05,1.05,0,0,1-.49.13,1.1,1.1,0,0,1-.4-.08,1,1,0,0,1,.49-.75m45.63,2.67a1.55,1.55,0,0,0-.31.46,1.6,1.6,0,0,0-.32-.45A1.55,1.55,0,0,0,48,32.71l-1.48,0a.09.09,0,0,0-.09.09l0,1.46a1.5,1.5,0,0,0,.46,1.09,1.53,1.53,0,0,0,1,.45h0a1.59,1.59,0,0,0,.91-.29l.45.45.06,0h0l.06,0,.45-.46a1.59,1.59,0,0,0,.84.28h.06a1.56,1.56,0,0,0,1.09-.47,1.58,1.58,0,0,0,.45-1.1l0-1.46a.09.09,0,0,0-.09-.09H50.78a1.55,1.55,0,0,0-1.09.46m-.83,1.6-1-1s0,0-.06,0a.1.1,0,0,0-.07,0l-.25.26a.11.11,0,0,0,0,.06.19.19,0,0,0,0,.07l1,1a1,1,0,0,1-.51.14,1,1,0,0,1-.71-.29,1,1,0,0,1-.31-.71v-1h1a1,1,0,0,1,1,1,1,1,0,0,1-.12.49m.53.53-.14-.14c0-.08.1-.16.14-.24a1.49,1.49,0,0,0,.14.24Zm2.41-2.06v1a1,1,0,0,1-.29.71,1.08,1.08,0,0,1-.72.31,1,1,0,0,1-.5-.14l1-1a.08.08,0,0,0,0-.12L51,33.73l-.06,0h0a.09.09,0,0,0-.06,0l-1,1a1,1,0,0,1,.16-1.21,1,1,0,0,1,.72-.3Zm-48,11.16h.12a1.6,1.6,0,0,0,.92-.32l.48.46.06,0h0a.15.15,0,0,0,.07,0l.46-.48a1.63,1.63,0,0,0,.81.27h.08a1.59,1.59,0,0,0,1.6-1.62l0-1.51a.09.09,0,0,0-.09-.09l-1.51,0a1.65,1.65,0,0,0-1.12.49,1.86,1.86,0,0,0-.32.5,1.61,1.61,0,0,0-.34-.48,1.58,1.58,0,0,0-1.1-.45h0l-1.5,0a.09.09,0,0,0-.09.09l0,1.51a1.56,1.56,0,0,0,.49,1.11,1.63,1.63,0,0,0,1,.44M6,42a1.06,1.06,0,0,1,.74-.33l1.06,0,0,1.06a1,1,0,0,1-1,1.07h0a1,1,0,0,1-.51-.13l1-1.07a.14.14,0,0,0,0-.06.09.09,0,0,0,0-.07L7,42.21a.07.07,0,0,0-.06,0,.11.11,0,0,0-.07,0l-1,1.06a1,1,0,0,1-.15-.52A1,1,0,0,1,6,42m-.68,1.4a.92.92,0,0,0,.16.27l-.15.16-.16-.15a1.51,1.51,0,0,0,.15-.28M3.84,41.73a1.06,1.06,0,0,1,.73.3,1,1,0,0,1,.19,1.27l-1.06-1a.06.06,0,0,0-.06,0,.07.07,0,0,0-.06,0l-.25.26a.07.07,0,0,0,0,.06.06.06,0,0,0,0,.06l1.06,1a1.1,1.1,0,0,1-.53.16h0a1.06,1.06,0,0,1-.73-.3,1,1,0,0,1-.32-.74l0-1.05ZM8.2,38.62l.07-.13a.07.07,0,0,0,0-.09l-.08-.12A1.54,1.54,0,0,0,7,37.54a1.58,1.58,0,0,0-.12-1.37l-.08-.12a.08.08,0,0,0-.07,0H6.62a1.56,1.56,0,0,0-1.22.62,1.56,1.56,0,0,0-1.21-.57H4a.12.12,0,0,0-.08,0l-.07.13a1.56,1.56,0,0,0-.07,1.38,1.54,1.54,0,0,0-1.12.78l-.07.13a.07.07,0,0,0,0,.09l.07.13a1.6,1.6,0,0,0,1.16.74A1.55,1.55,0,0,0,4,40.84L4,41a.12.12,0,0,0,.08,0h.15a1.59,1.59,0,0,0,1.22-.63A1.55,1.55,0,0,0,6.69,41h.17s.07,0,.08,0L7,40.78a1.54,1.54,0,0,0,.07-1.37,1.56,1.56,0,0,0,1.12-.79M5.67,37.29a.85.85,0,0,1,.09-.22,1.06,1.06,0,0,1,.75-.52,1,1,0,0,1,0,.91,1.43,1.43,0,0,1-.14.2l-.18.2,0,0a1,1,0,0,0-.51-.26ZM4.28,36.6a1,1,0,0,1,.78.48.85.85,0,0,1,.09.22l.08.26a1,1,0,0,0-.54.33L4.5,37.7l-.15-.19a1,1,0,0,1-.07-.91M4,39H4a1,1,0,0,1-.8-.4,1,1,0,0,1,.8-.42H4a.78.78,0,0,1,.22,0l.27.06a.86.86,0,0,0,0,.32.81.81,0,0,0,.06.31l-.26.07A1,1,0,0,1,4,39m1.17.77a.92.92,0,0,1-.09.23,1,1,0,0,1-.75.51,1,1,0,0,1,0-.91,1.21,1.21,0,0,1,.14-.2l.18-.19,0,.05a1,1,0,0,0,.5.25Zm.25-.78h0a.42.42,0,0,1-.3-.12.43.43,0,0,1,0-.61.42.42,0,0,1,.3-.13h.05a.43.43,0,0,1,.39.42.47.47,0,0,1-.12.31.43.43,0,0,1-.3.13m1.14,1.47a1,1,0,0,1-.77-.48,1.47,1.47,0,0,1-.1-.22l-.08-.25a1.08,1.08,0,0,0,.5-.28l0,0,.19.19a.9.9,0,0,1,.15.19,1,1,0,0,1,.07.9m.27-1.52h0l-.22,0-.26-.06a1.06,1.06,0,0,0,0-.31.87.87,0,0,0-.06-.32l.26-.07a1,1,0,0,1,.24,0h0a1,1,0,0,1,.8.39,1,1,0,0,1-.81.43M50.8,28.41a1.51,1.51,0,0,0-.59.11,1.52,1.52,0,0,0-.75-1.12l-.13-.08h-.09l-.13.08a1.52,1.52,0,0,0-.75,1.12,1.66,1.66,0,0,0-.58-.11,1.58,1.58,0,0,0-.77.2l-.13.08a.07.07,0,0,0,0,.07v.15a1.49,1.49,0,0,0,.59,1.22,1.51,1.51,0,0,0-.59,1.22v.14a.09.09,0,0,0,0,.08l.13.07a1.49,1.49,0,0,0,.77.21,1.62,1.62,0,0,0,.58-.11,1.54,1.54,0,0,0,.75,1.12l.13.07h.09l.13-.07a1.55,1.55,0,0,0,.76-1.13,1.43,1.43,0,0,0,.58.12,1.62,1.62,0,0,0,.77-.21l.12-.07a.1.1,0,0,0,.05-.08v-.15a1.54,1.54,0,0,0-.6-1.22,1.5,1.5,0,0,0,.6-1.22v-.14a.09.09,0,0,0,0-.08l-.12-.07a1.54,1.54,0,0,0-.76-.2M47.38,29a.92.92,0,0,1,.4-.08,1,1,0,0,1,.49.13.94.94,0,0,1,.19.14l.19.18a1,1,0,0,0-.2.25,1,1,0,0,0-.11.29l-.25-.07a.85.85,0,0,1-.22-.09,1,1,0,0,1-.49-.75m1.09,2a1.25,1.25,0,0,1-.19.15,1,1,0,0,1-.9.05,1,1,0,0,1,.49-.75.85.85,0,0,1,.22-.09l.25-.08a1,1,0,0,0,.31.54Zm.82-3.1a1,1,0,0,1,.4.8,1,1,0,0,1,0,.23l-.06.26a.84.84,0,0,0-.31,0,1,1,0,0,0-.25,0l-.06,0L48.91,29a1,1,0,0,1,0-.23,1,1,0,0,1,.41-.8m0,4.4a1,1,0,0,1-.4-.8.5.5,0,0,1,0-.24L49,31a1.06,1.06,0,0,0,.31.05h.08l.17,0h.06l.06.25a1,1,0,0,1,0,.24,1,1,0,0,1-.4.8m.36-2a.35.35,0,0,1-.25.19l-.11,0a.37.37,0,0,1-.21-.06.39.39,0,0,1-.2-.25.39.39,0,0,1,0-.32.43.43,0,0,1,.26-.2l.07,0h0a.42.42,0,0,1,.21.06.43.43,0,0,1,.2.26.46.46,0,0,1-.05.32m1.54.89a1,1,0,0,1-.39.08,1.06,1.06,0,0,1-.5-.13.9.9,0,0,1-.19-.15l-.19-.18a.91.91,0,0,0,.2-.24,1.08,1.08,0,0,0,.11-.3l.25.08a.85.85,0,0,1,.22.09,1,1,0,0,1,.49.75m-.49-1.45-.22.09-.25.07a1,1,0,0,0-.31-.54l.19-.18a1.33,1.33,0,0,1,.19-.14,1,1,0,0,1,.5-.14.89.89,0,0,1,.39.09,1,1,0,0,1-.49.75M4.41,48.36a1.55,1.55,0,0,0,.31,0,1.61,1.61,0,0,0,.84-.5l.56.35,0,0h0s0,0,.06,0l.35-.56a1.58,1.58,0,0,0,.61.12h0A1.6,1.6,0,0,0,8.56,47a1.54,1.54,0,0,0,.2-1.2l-.33-1.47a.1.1,0,0,0-.09-.07h0l-1.47.34a1.6,1.6,0,0,0-1,.71,1.55,1.55,0,0,0-.22.55,1.49,1.49,0,0,0-.43-.4,1.58,1.58,0,0,0-.84-.25,1.42,1.42,0,0,0-.36,0l-1.47.33a.09.09,0,0,0-.07.11l.34,1.47a1.54,1.54,0,0,0,.71,1,1.56,1.56,0,0,0,.84.25h0m1.9-2.8A1.05,1.05,0,0,1,7,45.09l1-.24.24,1a1.07,1.07,0,0,1-.14.8,1,1,0,0,1-.89.49,1.13,1.13,0,0,1-.32-.05l.78-1.25a.08.08,0,0,0,0-.07.1.1,0,0,0,0,0l-.3-.19,0,0a.1.1,0,0,0-.08.05l-.78,1.24a1.05,1.05,0,0,1-.12-1.27m-.38,1.51a1.51,1.51,0,0,0,.21.23L6,47.49l-.19-.12a1.71,1.71,0,0,0,.09-.3m-2.13.6A1.09,1.09,0,0,1,3.33,47L3.1,46l1-.24a1,1,0,0,1,.79.14,1,1,0,0,1,.45,1.2l-1.24-.79h0a.07.07,0,0,0-.07,0l-.2.31a.13.13,0,0,0,0,.06.09.09,0,0,0,0,.06l1.25.79a1.08,1.08,0,0,1-.73.29,1.1,1.1,0,0,1-.56-.16M4,35.8H4a1.56,1.56,0,0,0,.84-.28L5.3,36l.07,0,.06,0,.46-.45a1.54,1.54,0,0,0,.91.29h0a1.53,1.53,0,0,0,1-.45,1.56,1.56,0,0,0,.47-1.09V32.82a.09.09,0,0,0-.09-.09l-1.47,0a1.54,1.54,0,0,0-1.09.45,1.42,1.42,0,0,0-.32.45,1.77,1.77,0,0,0-.31-.46A1.55,1.55,0,0,0,4,32.69H2.52a.09.09,0,0,0-.09.09v1.46a1.52,1.52,0,0,0,.44,1.1A1.56,1.56,0,0,0,4,35.8m2.12-2.26a1.05,1.05,0,0,1,.69-.29H7.82v1a1,1,0,0,1-1,1,1,1,0,0,1-.52-.14l1-1a.11.11,0,0,0,0-.07.07.07,0,0,0,0-.06L7,33.76a.08.08,0,0,0-.07,0,.07.07,0,0,0-.06,0l-1,1a1,1,0,0,1-.13-.49,1,1,0,0,1,.3-.72m-.7,1.36a1.41,1.41,0,0,0,.13.24l-.14.14-.13-.14c0-.08.1-.16.14-.24M3,33.22H4a1,1,0,0,1,.87,1.51l-1-1a.07.07,0,0,0-.06,0l-.07,0L3.48,34a.08.08,0,0,0,0,.12l1,1a1,1,0,0,1-.5.14A1.06,1.06,0,0,1,3.25,35a1,1,0,0,1-.3-.71Zm49.12,5.52.08-.13a.14.14,0,0,0,0-.09l-.07-.13A1.56,1.56,0,0,0,51,37.61a1.59,1.59,0,0,0-.06-1.38l-.08-.13a.1.1,0,0,0-.08,0h-.17a1.57,1.57,0,0,0-1.21.57A1.56,1.56,0,0,0,48.15,36H48a.1.1,0,0,0-.08,0l-.08.12a1.58,1.58,0,0,0-.12,1.37,1.56,1.56,0,0,0-1.15.74l-.08.12a.14.14,0,0,0,0,.09l.07.13a1.56,1.56,0,0,0,1.12.79,1.57,1.57,0,0,0,.07,1.37l.07.13a.09.09,0,0,0,.08,0h.18a1.58,1.58,0,0,0,1.21-.58A1.55,1.55,0,0,0,50.5,41h.15a.12.12,0,0,0,.08,0l.08-.13a1.59,1.59,0,0,0,.12-1.36,1.59,1.59,0,0,0,1.15-.74M49.61,37.3a.88.88,0,0,1,.1-.22,1,1,0,0,1,.77-.48,1,1,0,0,1-.07.91,1.25,1.25,0,0,1-.15.19l-.19.19a1,1,0,0,0-.54-.33Zm-1.36-.75a1,1,0,0,1,.75.52.85.85,0,0,1,.09.22l.07.26a1,1,0,0,0-.51.26l0,0-.19-.2a1.43,1.43,0,0,1-.14-.2,1,1,0,0,1,0-.91m-.33,2.34h0a1,1,0,0,1-.8-.43,1,1,0,0,1,.8-.39h0a1,1,0,0,1,.24,0l.25.07a1.65,1.65,0,0,0-.06.32,1.06,1.06,0,0,0,0,.31l-.26.06a.83.83,0,0,1-.22,0m1.12.82a.88.88,0,0,1-.1.22,1,1,0,0,1-.77.48,1,1,0,0,1,.07-.9.9.9,0,0,1,.15-.19l.19-.19,0,0a1.08,1.08,0,0,0,.5.28Zm.29-.77h0a.44.44,0,0,1-.31-.13.47.47,0,0,1-.12-.31.44.44,0,0,1,.4-.42h0a.44.44,0,0,1,.31.13.43.43,0,0,1,.12.31.44.44,0,0,1-.14.3.4.4,0,0,1-.29.12m1.07,1.52a1,1,0,0,1-.75-.51.92.92,0,0,1-.09-.23l-.07-.26a1,1,0,0,0,.51-.25l0-.05.19.19a2.43,2.43,0,0,1,.14.2,1,1,0,0,1,0,.91M50.76,39h0a1,1,0,0,1-.24,0l-.25-.07a1.55,1.55,0,0,0,.06-.31,1.13,1.13,0,0,0,0-.32l.26-.06a.82.82,0,0,1,.22,0h0a1,1,0,0,1,.8.42,1,1,0,0,1-.79.4M22.51,46.79l-.35.13v-.81s0,0-.06,0l-.11,0s-.06,0-.06.08v1s0,0,.06,0l.52-.19s.06,0,.06-.08v-.11s0,0-.06,0M29.25,29.1H27.3v.5h1.95Zm-3.8,14.7h0s.05,0,.06,0a1.7,1.7,0,0,1,.51-.08,1.58,1.58,0,0,1,.66.14,1.76,1.76,0,0,0,.68.15,1.71,1.71,0,0,0,.68-.15,1.64,1.64,0,0,1,1.17-.06l.06,0h0l0,0,.06,0h0l.59-.22a1.24,1.24,0,0,1-.43-.11,2.09,2.09,0,0,0-.86-.18,2.19,2.19,0,0,0-.87.18,1.21,1.21,0,0,1-.48.11,1.25,1.25,0,0,1-.48-.11,2.09,2.09,0,0,0-.86-.18,2.14,2.14,0,0,0-.87.18,1.18,1.18,0,0,1-.43.11l.59.22h0l.07,0,0,0M27.86,46a1.21,1.21,0,0,1-.48.11A1.25,1.25,0,0,1,26.9,46a2.09,2.09,0,0,0-.86-.18l-.29,0v.55l.29,0a1.58,1.58,0,0,1,.66.14,2,2,0,0,0,.68.14,1.93,1.93,0,0,0,.68-.14,1.64,1.64,0,0,1,.67-.14l.29,0v-.55l-.29,0a2.19,2.19,0,0,0-.87.18m-4.49-.36-.11,0a.07.07,0,0,0-.06.08v.66a.22.22,0,0,1-.17.23c-.11.05-.17,0-.17-.11v-.65s0-.06-.06,0l-.11,0s-.05,0-.05.09v.65c0,.25.13.36.39.26a.56.56,0,0,0,.4-.55v-.65s0-.06-.06,0M26,48.9a1.6,1.6,0,0,1,.66.13,1.76,1.76,0,0,0,.68.15,1.71,1.71,0,0,0,.68-.15,1.65,1.65,0,0,1,.67-.13,1.6,1.6,0,0,1,.66.13l.11,0,.12-.25-.29-.4a2.35,2.35,0,0,0-.6-.08,2.19,2.19,0,0,0-.87.18,1.21,1.21,0,0,1-.48.11,1.25,1.25,0,0,1-.48-.11,2.09,2.09,0,0,0-.86-.18,2.37,2.37,0,0,0-.61.08l-.29.4.12.25.11,0A1.65,1.65,0,0,1,26,48.9M24.5,33H26V30.75H24.14V31h-1v.5h1v1.4h-1v.5h1.4Zm.14-1.79h.85v1.29h-.85Zm.73,20.35a1.64,1.64,0,0,1,.67-.14,1.58,1.58,0,0,1,.66.14,1.76,1.76,0,0,0,.68.15,1.71,1.71,0,0,0,.68-.15,1.64,1.64,0,0,1,.67-.14,1.58,1.58,0,0,1,.66.14,1.8,1.8,0,0,0,.39.12l.19-.52a1.66,1.66,0,0,1-.38-.11,2.3,2.3,0,0,0-.86-.17,2.41,2.41,0,0,0-.87.17,1.06,1.06,0,0,1-.48.11,1.09,1.09,0,0,1-.48-.11,2.3,2.3,0,0,0-.86-.17,2.36,2.36,0,0,0-.87.17,1.58,1.58,0,0,1-.37.11l.19.52a1.7,1.7,0,0,0,.38-.12M31,45.47l-.11,0s-.05,0-.05,0v.65q0,.18-.18.12a.25.25,0,0,1-.17-.24v-.66s0-.07-.06-.08l-.11,0s-.05,0-.05,0v.65a.55.55,0,0,0,.39.55c.26.1.4,0,.4-.26v-.65a.07.07,0,0,0-.06-.08m2.58,1a.08.08,0,0,0-.07-.07l-.11,0s-.05,0-.06,0l-.31.81-.12-.29a.14.14,0,0,0,0-.06c.1,0,.15-.11.15-.26a.48.48,0,0,0-.32-.48L32.36,46s0,0,0,0a.07.07,0,0,0-.06-.07l-.65-.24s-.05,0-.05,0v.11a.07.07,0,0,0,.05.08l.22.08v.8c0,.05,0,.07.05.09l.11,0c.05,0,.06,0,.06-.05v-.8l.21.07s.06,0,.06,0V47c0,.05,0,.07,0,.08l.11,0c.05,0,.06,0,.06,0v-.33l.06,0a.19.19,0,0,1,.13.14l.1.28c0,.06,0,.08.12.1l.11,0h0l.09,0c.07,0,.09,0,.1,0l0-.13.34.13,0,.16c0,.05,0,.07.1.09l.11,0s0,0,0,0Zm-.88.12-.19-.07v-.25l.19.06a.18.18,0,0,1,.11.17c0,.08,0,.11-.11.09m.64.44.07-.22a.46.46,0,0,0,0-.2h0a1.19,1.19,0,0,0,0,.24l.07.26Zm-1.65-.42-.35-.13v-.81a.07.07,0,0,0-.06-.08l-.11,0s-.06,0-.06,0v1a.09.09,0,0,0,.06.09l.52.19s.06,0,.06,0v-.1a.07.07,0,0,0-.06-.08m-10.23-.3-.36.14a.07.07,0,0,0-.06.08v1c0,.05,0,.06.06.05l.11,0s.05,0,.05-.09v-.29l.2-.07a.51.51,0,0,0,.34-.5c0-.23-.13-.32-.34-.25m0,.52-.18.07V46.6l.18-.07c.08,0,.13,0,.13.1a.18.18,0,0,1-.13.18m2.53-1c-.11,0-.21,0-.21,0s0-.12.16-.16.13,0,.16,0,0,0,.07,0l.11-.08s0-.06,0-.1-.17-.17-.37-.09a.54.54,0,0,0-.39.48c0,.29.22.24.38.2s.19,0,.19,0-.07.15-.19.19-.15,0-.17,0,0,0-.07,0l-.1.08s-.05,0,0,.09.17.19.38.11a.56.56,0,0,0,.41-.5c0-.27-.19-.24-.35-.21m26.4,5.09a1.74,1.74,0,0,0-1.34-.8,1.7,1.7,0,0,0-.14-1.55l-.08-.13a.08.08,0,0,0-.08,0H48.6a1.72,1.72,0,0,0-1.36.76,1.73,1.73,0,0,0-1.35-.65h-.22a.1.1,0,0,0-.08,0l-.07.13a1.75,1.75,0,0,0,0,1.56,1.76,1.76,0,0,0-1.27.9l-.07.14a.1.1,0,0,0,0,.09l.08.13a1.73,1.73,0,0,0,1.33.8,1.71,1.71,0,0,0,.14,1.54l.09.14a.08.08,0,0,0,.07,0H46a1.71,1.71,0,0,0,1.36-.75,1.71,1.71,0,0,0,1.35.65H49a.08.08,0,0,0,.07,0l.07-.14a1.72,1.72,0,0,0,0-1.56,1.68,1.68,0,0,0,1.27-.9l.07-.14a.14.14,0,0,0,0-.09Zm-2.87-1.09a2,2,0,0,1,.1-.26,1.2,1.2,0,0,1,.89-.62,1.18,1.18,0,0,1,0,1.08.87.87,0,0,1-.16.23l-.23.26a1,1,0,0,0-.56-.34l-.11,0ZM46,49a1.17,1.17,0,0,1,.93.54,1.23,1.23,0,0,1,.12.26l.11.32a1.42,1.42,0,0,0-.36.14,1.24,1.24,0,0,0-.29.27l-.24-.24A1.24,1.24,0,0,1,46,50.1,1.19,1.19,0,0,1,46,49m-.22,2.72h0a1.16,1.16,0,0,1-.93-.46,1.15,1.15,0,0,1,.94-.53h0a1,1,0,0,1,.24,0l.33.07,0,.11a1,1,0,0,0,.06.65l-.33.1a1.26,1.26,0,0,1-.28,0m1.38.83a2,2,0,0,1-.1.26,1.22,1.22,0,0,1-.89.62,1.2,1.2,0,0,1,0-1.09,1.06,1.06,0,0,1,.16-.23l.22-.25h0a1,1,0,0,0,.56.34l.11,0Zm.2-.86-.11,0a.52.52,0,0,1-.33-.23.54.54,0,0,1-.06-.39.49.49,0,0,1,.23-.33.5.5,0,0,1,.27-.08h.12a.55.55,0,0,1,.27.17l.06.07a.52.52,0,0,1,.06.39.55.55,0,0,1-.23.33.54.54,0,0,1-.28.08m1.37,1.64a1.2,1.2,0,0,1-.94-.55,1,1,0,0,1-.12-.25l-.1-.33a1,1,0,0,0,.64-.4l.25.24a1.18,1.18,0,0,1,.18.21,1.21,1.21,0,0,1,.09,1.08m.25-1.73h0l-.24,0-.33-.07,0-.11a1,1,0,0,0-.06-.65l.33-.1a1.26,1.26,0,0,1,.27,0h0a1.17,1.17,0,0,1,.93.46,1.15,1.15,0,0,1-.94.53M44.85,57.5a1.63,1.63,0,0,0-1.13-.45h0a1.65,1.65,0,0,0-.62.14,1.66,1.66,0,0,0,.11-.62,1.64,1.64,0,0,0-.51-1.16l-1.13-1.07a.09.09,0,0,0-.06,0,.09.09,0,0,0-.07,0l-1.07,1.13a1.66,1.66,0,0,0-.45,1.18,1.65,1.65,0,0,0,1.42,1.59l0,.69a.11.11,0,0,0,0,.06.09.09,0,0,0,.07,0l.69,0a1.64,1.64,0,0,0,1.57,1.34h.09a1.61,1.61,0,0,0,1.15-.51L46,58.7a.07.07,0,0,0,0-.12Zm-2.76,1h-.25v-.25a1.35,1.35,0,0,0,.34-.11,2.25,2.25,0,0,0-.09.35m-.26-.79,0-1.54A.11.11,0,0,0,41.7,56h-.36a.07.07,0,0,0-.06,0,.09.09,0,0,0,0,.06l0,1.55a1.18,1.18,0,0,1-.53-.28,1.1,1.1,0,0,1-.34-.78,1.12,1.12,0,0,1,.3-.79l.76-.8.81.76a1.14,1.14,0,0,1,.34.78,1.13,1.13,0,0,1-.8,1.09m2.69,1.79a1.08,1.08,0,0,1-.77.34h0A1.1,1.1,0,0,1,42.65,59l1.54,0a.09.09,0,0,0,.09-.09v-.36a.11.11,0,0,0,0-.06.09.09,0,0,0-.07,0l-1.54,0a1.11,1.11,0,0,1,1-.85h0a1.12,1.12,0,0,1,.76.3l.81.77Zm2.65-5a1.63,1.63,0,0,0-1-.34H46a1.72,1.72,0,0,0-.59.2,1.84,1.84,0,0,0,0-.62,1.64,1.64,0,0,0-.62-1.08l-1.22-1-.06,0a.09.09,0,0,0-.07,0L42.51,53a1.57,1.57,0,0,0-.33,1.2,1.65,1.65,0,0,0,1.56,1.43l.08.68,0,.06,0,0h0l.68-.09a1.64,1.64,0,0,0,1.51,1.17h.25a1.66,1.66,0,0,0,1.09-.62l.95-1.22a.09.09,0,0,0,0-.13Zm-2.63,1.22-.24,0,0-.23a2.12,2.12,0,0,0,.31-.14,2,2,0,0,0-.05.34M44.2,55,44,53.46s0-.05,0-.06l0,0h0l-.36,0a.09.09,0,0,0-.08.1L43.67,55a1.07,1.07,0,0,1-.54-.22,1.12,1.12,0,0,1-.42-.73,1.09,1.09,0,0,1,.22-.8l.67-.87.87.67a1.07,1.07,0,0,1,.41.73A1.1,1.1,0,0,1,44.2,55M47,56.47a1.06,1.06,0,0,1-.72.41h-.14a1.07,1.07,0,0,1-.67-.23,1.08,1.08,0,0,1-.35-.47l1.51-.2a.08.08,0,0,0,.08-.1l0-.35a.09.09,0,0,0,0-.06s0,0,0,0h0l-1.51.19a1.08,1.08,0,0,1,.21-.52,1,1,0,0,1,.73-.42h.14a1.07,1.07,0,0,1,.67.23l.86.67Zm5.43-15.24-1.5,0h0a1.58,1.58,0,0,0-1.11.45,1.82,1.82,0,0,0-.34.48,1.47,1.47,0,0,0-.32-.5A1.61,1.61,0,0,0,48,41.13l-1.5,0a.09.09,0,0,0-.09.09l0,1.51A1.6,1.6,0,0,0,48,44.32h.09a1.66,1.66,0,0,0,.81-.27l.46.48a.11.11,0,0,0,.06,0h0a.06.06,0,0,0,.06,0l.48-.46a1.63,1.63,0,0,0,.92.32H51a1.58,1.58,0,0,0,1-.44,1.56,1.56,0,0,0,.49-1.11l0-1.51a.09.09,0,0,0-.1-.09m-3.55,2-1-1.06a.09.09,0,0,0-.07,0,.09.09,0,0,0-.06,0l-.26.24a.09.09,0,0,0,0,.07.09.09,0,0,0,0,.06l1,1.07a1.06,1.06,0,0,1-.52.13h0a1,1,0,0,1-.74-.32,1.05,1.05,0,0,1-.3-.75l0-1.06,1.06,0a1,1,0,0,1,.74.33,1,1,0,0,1,.29.75.93.93,0,0,1-.15.52m.54.56-.16-.16a1.24,1.24,0,0,0,.17-.27,1,1,0,0,0,.14.28Zm2.53-1a1,1,0,0,1-.32.74,1.06,1.06,0,0,1-.73.3h0a1.1,1.1,0,0,1-.54-.16l1.06-1a.06.06,0,0,0,0-.06.07.07,0,0,0,0-.06l-.24-.26a.09.09,0,0,0-.07,0,.09.09,0,0,0-.06,0L50,43.3A1,1,0,0,1,50.2,42a1,1,0,0,1,.73-.3l1.08,0Zm.24,2.74-1.46-.33a1.49,1.49,0,0,0-.36,0,1.61,1.61,0,0,0-1.28.65,1.53,1.53,0,0,0-.21-.55,1.62,1.62,0,0,0-1-.71l-1.46-.34h0a.09.09,0,0,0-.09.07L46,45.76a1.63,1.63,0,0,0,.2,1.2,1.6,1.6,0,0,0,1.3.75h.06a1.53,1.53,0,0,0,.6-.12l.36.56a.07.07,0,0,0,0,0h0l0,0,.57-.35a1.58,1.58,0,0,0,.83.5,1.63,1.63,0,0,0,.31,0h0a1.62,1.62,0,0,0,.85-.25,1.52,1.52,0,0,0,.7-1l.34-1.47a.09.09,0,0,0-.07-.11m-3.89,1.28-.78-1.24a.08.08,0,0,0-.07-.05l0,0-.31.19a.1.1,0,0,0,0,0,.08.08,0,0,0,0,.07l.77,1.25a1.12,1.12,0,0,1-.31.05,1,1,0,0,1-.9-.49,1.07,1.07,0,0,1-.14-.8l.24-1,1,.24a1,1,0,0,1,.66.47,1,1,0,0,1-.12,1.27m.41.66-.12-.19a1.51,1.51,0,0,0,.21-.23,1.71,1.71,0,0,0,.09.3ZM51.43,47a1.05,1.05,0,0,1-.47.66,1.06,1.06,0,0,1-1.29-.13l1.25-.79a.07.07,0,0,0,0-.06.07.07,0,0,0,0-.06l-.19-.31a.09.09,0,0,0-.08,0h0l-1.24.79a1,1,0,0,1,.45-1.2,1,1,0,0,1,.56-.17,1,1,0,0,1,.24,0l1,.24ZM15.82,27.65a8.76,8.76,0,0,0-.67,3.6v9.87a12.1,12.1,0,0,0,4.67,9.61c2.49,2.13,5.32,4.42,7.45,5.32l.11.05.12-.05c2.12-.9,5-3.19,7.45-5.32a12.12,12.12,0,0,0,4.66-9.61V31.25a8.6,8.6,0,0,0-.67-3.6,5.57,5.57,0,0,0-1.69-2.12,13.43,13.43,0,0,0-7.54-2.43v-1H28.34v.56H28.1v-.56H26.66v.56h-.23v-.56H25.05v1a13.32,13.32,0,0,0-7.53,2.43,5.5,5.5,0,0,0-1.7,2.12m5.67,23.27H21l-.76-.64a11.52,11.52,0,0,1-4.45-9.16V40.7h4.84l.4,1.16a.24.24,0,0,0,.24.17h.26v.7l-1.17-.44a.25.25,0,0,0-.32.34L20.64,44l-.61.8a.24.24,0,0,0,0,.22.22.22,0,0,0,.15.16l.91.33-.91.33a.25.25,0,0,0-.16.24v2.33a.25.25,0,0,0,.11.21l.05,0,1.35.49Zm0-19.77V28.06h1.28v.7h2.69v-.7H29.3v.7H32v-.7h1.29v1H29.89v.5h3.39V31h-2v.5h1.54l-.31.23V32.9H30.63V30.75H28.77V31H27.3v.5h1.47v1.4H27.3v.5h1.91V33h1v.37H32.5v1.4H30.82v.5H32.5v.09l1,1.27H32.28v.5H34l.1.13v1.32H32.88v.5h1.18v1.08H30.64V37.06a3.26,3.26,0,0,0-6.49-.4H22.68v.5h1.44v1.45H21.5v.5h2.62v1.08H20.7v-2.9l1.57-1.9V31.73Zm2.39-5.45v-.55h.44v.55h1.23v-.55h.38v1.18H23.68v.5h2.25v.73H25v.7H23.27v-.7h-1V25.15h.38v.55Zm6.25,6.83h-.86V31.24h.86Zm3.5,11.68.5.65-.86.31v-1.9l.78-.29-.45,1a.23.23,0,0,0,0,.25M29.9,46.49v-1.8l4.38,1.59v1.8Zm3.91,1.95-.54.2v-.39Zm-1-.37v2.85H31.42V47.57Zm-12.29,0v-1.8l4.38-1.59v1.8Zm2.87-.51v3.35H22V48.07ZM21.16,44l-.45-1,.78.29v1.9l-.85-.31.49-.65a.23.23,0,0,0,0-.25m.24-2.42-.28-.83h3.1l-.29.83Zm2.45,2.6.53.19-.53.2ZM22,42h1.36v2.67L22,45.2Zm2.19,6.83.44.92-.77-.28V47.6l.86.32-.51.7a.25.25,0,0,0,0,.25M23.85,50l1.17.43.09,0a.23.23,0,0,0,.18-.08.24.24,0,0,0,0-.28l-.64-1.34.62-.85a.24.24,0,0,0,0-.22.25.25,0,0,0-.16-.16l-.9-.33.9-.33a.25.25,0,0,0,.17-.23V44.33a.24.24,0,0,0-.11-.2l-.06,0-1.34-.5V42h.26a.24.24,0,0,0,.24-.17l.4-1.16H30l.39,1.16a.25.25,0,0,0,.24.17h.27V43.6l-1.35.5-.06,0a.24.24,0,0,0-.11.2v2.34a.25.25,0,0,0,.17.23l.91.33-.91.33a.26.26,0,0,0-.15.16.24.24,0,0,0,0,.22l.62.85-.64,1.34a.24.24,0,0,0,0,.28.27.27,0,0,0,.18.08l.09,0L30.92,50v.88h-.27a.27.27,0,0,0-.24.17L30,52.18H24.75l-.4-1.09a.26.26,0,0,0-.24-.17h-.26Zm2.88-14v-1.7a3.5,3.5,0,0,1,.65-.07,3.17,3.17,0,0,1,.76.1v3.9h.5V34.6a2.77,2.77,0,0,1,1.5,2.46v3.13h-1.5V39.08h-.5v1.11H26.73V36.67h-.5v3.52H24.62V37.06a2.77,2.77,0,0,1,1.61-2.51v1.52Zm4.19,8.07v.39l-.54-.2Zm-.77,5.65.44-.92a.25.25,0,0,0,0-.25l-.51-.7.87-.32v1.91Zm1.27-5.08V42h1.35V45.2Zm-.59-3.17-.28-.83h3.09l-.28.83Zm-9.34,7.1-.53-.2.53-.19Zm.5,3.14v-.36h2l.27.75H22.48L22,51.78m5.39,3.67a22.64,22.64,0,0,1-4.26-2.77h8.52a22.33,22.33,0,0,1-4.26,2.77m4.9-3.28H30.55l.27-.75H33.2c-.3.26-.61.51-.92.75M39,41.12a11.53,11.53,0,0,1-4.46,9.16l-.76.64h-.53V49.17l1.35-.49.06,0a.27.27,0,0,0,.1-.21V46.11a.25.25,0,0,0-.16-.24l-.91-.33.91-.33a.22.22,0,0,0,.15-.16.22.22,0,0,0,0-.22l-.61-.8.64-1.39a.24.24,0,0,0,0-.27.25.25,0,0,0-.27-.07l-1.18.44V42h.27a.25.25,0,0,0,.24-.17l.39-1.16H39ZM29.71,23.69A12.81,12.81,0,0,1,36.89,26a5,5,0,0,1,1.52,1.9A8.22,8.22,0,0,1,39,31.25v8.94H34.56V37.12L33,35.21V32l.78-.57V27.56H33V24.65H31.62v.55h-.24v-.55H30v.55h-.24V23.69Zm.74,2v-.55h.43v.55h1.24v-.55h.38v1.18h-.85v.5h.85v.73h-1v.7H29.8v-.7h-1V25.15h.38v.55Zm-4.9-3.05h.37v.56h1.24v-.56h.44v.56h1.24v-.56h.37v1.27H26.55v.5h2.66v.23h-.88v1.41h-1v.5h1v1h-1.9V24.65h-.88Zm-.5,1V25.2h-.23v-.55H23.38v.55h-.24v-.55H21.76v2.91H21v3.85l.77.57v3.23L20.2,37.12v3.07H15.75V31.25a8.06,8.06,0,0,1,.61-3.35A5,5,0,0,1,17.88,26a12.75,12.75,0,0,1,7.17-2.31m9.72,20.23a1.62,1.62,0,0,0,1.36,0,1.64,1.64,0,0,1,.67-.14,1.58,1.58,0,0,1,.66.14,2,2,0,0,0,.48.13l.06-.26h0l.06-.26a1.38,1.38,0,0,1-.41-.11,2.09,2.09,0,0,0-.86-.18,2.19,2.19,0,0,0-.87.18,1.21,1.21,0,0,1-.48.11,1.25,1.25,0,0,1-.48-.11l-.12,0-.23.49.15.06M30.91,26.33H29.77v.5h1.14Zm3.71,32.6a32.93,32.93,0,0,0,2.76-2c5.36-4.42,8.2-9.67,8.2-15.15V29.62A4.49,4.49,0,0,1,47.09,26l4.49-4.49-8.11-8.11L41,15.87a6.16,6.16,0,0,0-5.43-3.27c-1.75,0-3.4.84-5.31,2.71a3.81,3.81,0,0,0-.77.92V12.48h3.82V8.25H29.5V4.43H25.27V8.25H21.45v4.23h3.82v3.75a4.09,4.09,0,0,0-.78-.92c-1.91-1.87-3.55-2.71-5.31-2.71a6.17,6.17,0,0,0-5.43,3.27l-2.46-2.46L3.18,21.52,7.67,26a4.49,4.49,0,0,1,1.51,3.61V41.73c0,5.48,2.84,10.73,8.2,15.15.86.71,1.79,1.4,2.76,2a3,3,0,0,0-2.05,1,3.45,3.45,0,0,0-.83,2.3,3.37,3.37,0,0,0,1.13,2.66,6.35,6.35,0,0,0,4.29,2.18,5,5,0,0,0,4.7-3.31,5,5,0,0,0,4.71,3.31,6.37,6.37,0,0,0,4.3-2.2,3.38,3.38,0,0,0,1.11-2.64,3.5,3.5,0,0,0-.82-2.3,3.06,3.06,0,0,0-2.06-1m1-45.74a5.57,5.57,0,0,1,5,3.12,6.19,6.19,0,0,0-1.42,2.1,5.78,5.78,0,0,0-5.57-4.24,5.91,5.91,0,0,0-1.18.12,5.53,5.53,0,0,1,3.18-1.1m-5.09,2.73s0,0,.05-.05l.23-.22a4.23,4.23,0,0,1,2.81-.89,5.19,5.19,0,0,1,5.19,5.18V21.6a16.18,16.18,0,0,0-2.89-1.42,2.67,2.67,0,0,0,.07-.64,3,3,0,0,0-3.15-3,.3.3,0,1,0,0,.59,2.46,2.46,0,0,1,2.56,2.42,2.55,2.55,0,0,1-2.52,2.51,3.32,3.32,0,0,1-3.34-3.5,3.81,3.81,0,0,1,1-2.63m-8.45-4V8.84h3.82V5h3.05V8.84h3.82v3.05H28.91V19H25.86v-7.1Zm3.7,7.7H29a4.22,4.22,0,0,0,.89,1.78,3.77,3.77,0,0,0,2.93,1.27,3.16,3.16,0,0,0,2.86-1.89,13.66,13.66,0,0,1,3.7,2,9.15,9.15,0,0,1,2.73,3.43,12.16,12.16,0,0,1,1,5.05v9.87A15.63,15.63,0,0,1,37.22,53.4c-2.84,2.41-5.81,4.79-8.36,5.87l-1.48.63-1.48-.63c-2.55-1.08-5.52-3.46-8.36-5.87a15.63,15.63,0,0,1-5.89-12.28V31.25a12.16,12.16,0,0,1,1-5.05,9.15,9.15,0,0,1,2.73-3.43,13.72,13.72,0,0,1,3.71-2,3.14,3.14,0,0,0,2.85,1.89,3.79,3.79,0,0,0,3.82-3.05m-1.52-3.72.06.05a3.81,3.81,0,0,1,1,2.63,3.32,3.32,0,0,1-3.35,3.5,2.55,2.55,0,0,1-2.52-2.51A2.46,2.46,0,0,1,22,17.12a.3.3,0,1,0,0-.59,3,3,0,0,0-3.15,3,3.3,3.3,0,0,0,.07.64A15.76,15.76,0,0,0,16,21.6V19.94a5.18,5.18,0,0,1,5.18-5.18,4.23,4.23,0,0,1,2.81.89l.23.22m-5-2.68a5.51,5.51,0,0,1,3.18,1.1,5.79,5.79,0,0,0-6.75,4.12,6,6,0,0,0-1.42-2.1,5.57,5.57,0,0,1,5-3.12m-.5,51.18h0a3,3,0,0,1-.82-2.12,2.61,2.61,0,0,1,2.63-2.75,1.85,1.85,0,0,1,.9.23l.1.06h0a2,2,0,0,1,1,1.67,1.91,1.91,0,0,1-2,1.89.31.31,0,0,0-.3.3.3.3,0,0,0,.3.29,2.79,2.79,0,0,0,1.7-.58,2.34,2.34,0,0,0,.89-1.9,2.57,2.57,0,0,0-1.32-2.21,35.35,35.35,0,0,1-4-2.82c-5.22-4.32-8-9.4-8-14.7V29.62a5.07,5.07,0,0,0-1.68-4L4,21.52l7.27-7.27,2.37,2.36a5.33,5.33,0,0,1,1.74,4.5V22l-.4.3A9.82,9.82,0,0,0,12.09,26a12.8,12.8,0,0,0-1,5.29v9.87a16.19,16.19,0,0,0,6.1,12.73,41.14,41.14,0,0,0,8,5.75v1.55a4.11,4.11,0,0,1-4.11,4.1,3.33,3.33,0,0,1-2.22-.71c-.06-.06-.12-.11-.17-.17m8.41-2.27a4.41,4.41,0,0,1-4.41,4.4,4.19,4.19,0,0,1-2.28-.71,5,5,0,0,0,.67,0,4.71,4.71,0,0,0,4.7-4.69V59.86l1.32.56Zm.29-1.87h0Zm4.71,6.27a4.4,4.4,0,0,1-4.41-4.4V60.42L29,59.86v1.29a4.7,4.7,0,0,0,4.69,4.69,4.91,4.91,0,0,0,.67,0,4.18,4.18,0,0,1-2.27.71m4-2.12h0l-.18.17a3.31,3.31,0,0,1-2.22.71,4.11,4.11,0,0,1-4.1-4.1V59.6a41.4,41.4,0,0,0,8-5.75,16.19,16.19,0,0,0,6.1-12.73V31.25a12.64,12.64,0,0,0-1-5.29,9.72,9.72,0,0,0-2.91-3.66l-.4-.3v-.13h0v-.76a5.33,5.33,0,0,1,1.74-4.5l2.37-2.36,7.28,7.27-4.08,4.07a5.07,5.07,0,0,0-1.68,4V41.73c0,5.3-2.76,10.38-8,14.7a35.35,35.35,0,0,1-4,2.82,2.58,2.58,0,0,0-1.31,2.21,2.49,2.49,0,0,0,2.59,2.48.29.29,0,0,0,.29-.29.3.3,0,0,0-.29-.3,1.92,1.92,0,0,1-2-1.89,2,2,0,0,1,1-1.67h0l.1-.06a1.85,1.85,0,0,1,.9-.23,2.61,2.61,0,0,1,2.63,2.75,3,3,0,0,1-.82,2.12M35.93,46a1.21,1.21,0,0,1-.48.11,1.27,1.27,0,0,1-.29,0,.17.17,0,0,1,0,.07v.49l.28,0a1.93,1.93,0,0,0,.68-.14,1.64,1.64,0,0,1,.67-.14H37c.09-.17.18-.34.26-.51a2.12,2.12,0,0,0-.47-.05,2.19,2.19,0,0,0-.87.18M42.25,60.4a1.68,1.68,0,0,0-1.14-.61H41a1.68,1.68,0,0,0-.5.07,1.76,1.76,0,0,0,.19-.64A1.69,1.69,0,0,0,40.26,58l-1-1.23a.11.11,0,0,0-.07,0,.07.07,0,0,0-.06,0l-1.24,1a1.69,1.69,0,0,0,.66,2.94l0,.38-.56.43a.1.1,0,0,0,0,.13l.22.28a.09.09,0,0,0,.06,0h0l.06,0,.51-.4.48,0a1.67,1.67,0,0,0,1.53,1.58H41A1.69,1.69,0,0,0,42,62.79l1.23-1a.08.08,0,0,0,0-.12Zm-2.94.65L39,61l0-.27a1.78,1.78,0,0,0,.39-.07,1.51,1.51,0,0,0-.15.37m-.19-.85.16-1.59a.14.14,0,0,0,0-.07l-.06,0-.36,0h0a.11.11,0,0,0-.09.08l-.15,1.61a1.15,1.15,0,0,1-.37-2l.89-.73.73.89a1.12,1.12,0,0,1,.26.84,1.15,1.15,0,0,1-1,1m2.56,2.17a1.14,1.14,0,0,1-.73.26h-.11a1.15,1.15,0,0,1-.78-.42,1,1,0,0,1-.25-.57l1.6.14h0a.09.09,0,0,0,.09-.08l0-.35a.08.08,0,0,0,0-.07l-.06,0-1.6-.15a1.09,1.09,0,0,1,.36-.51,1.13,1.13,0,0,1,.73-.27h.11a1.18,1.18,0,0,1,.78.41l.74.9ZM12.66,59l.7,0,.06,0a.07.07,0,0,0,0-.06v-.69a1.65,1.65,0,0,0,1.43-1.59,1.66,1.66,0,0,0-.45-1.18l-1.08-1.13a.09.09,0,0,0-.06,0,.09.09,0,0,0-.07,0l-1.12,1.07a1.69,1.69,0,0,0-.52,1.16,1.66,1.66,0,0,0,.11.62,1.6,1.6,0,0,0-.61-.14H11a1.65,1.65,0,0,0-1.13.45L8.78,58.58a.08.08,0,0,0,0,.12l1.07,1.13a1.61,1.61,0,0,0,1.15.51h.1A1.62,1.62,0,0,0,12.66,59m.26-.53h-.25a1.13,1.13,0,0,0-.09-.35,1.5,1.5,0,0,0,.34.11Zm-2.35.47,1.54,0a1.1,1.1,0,0,1-1.06.82h0a1.1,1.1,0,0,1-.78-.34l-.76-.8.8-.77a1.14,1.14,0,0,1,.77-.3h0a1.1,1.1,0,0,1,1,.85l-1.54,0a.11.11,0,0,0-.09.09v.36a.09.09,0,0,0,.09.09m1.91-3.14.8-.76.77.8a1.16,1.16,0,0,1,.3.79,1.14,1.14,0,0,1-.34.78,1.18,1.18,0,0,1-.53.28l0-1.55a.14.14,0,0,0,0-.06.09.09,0,0,0-.07,0h-.36a.09.09,0,0,0-.06,0,.07.07,0,0,0,0,.06l0,1.54a1.13,1.13,0,0,1-.81-1.09,1.11,1.11,0,0,1,.35-.78m-2.32.46.68.09h0l.06,0s0,0,0-.06l.08-.68a1.64,1.64,0,0,0,1.56-1.43,1.61,1.61,0,0,0-.32-1.2l-.95-1.22a.08.08,0,0,0-.07,0l-.06,0-1.21,1a1.56,1.56,0,0,0-.62,1.08,1.61,1.61,0,0,0,0,.62,1.6,1.6,0,0,0-.58-.2H8.59a1.65,1.65,0,0,0-1,.34l-1.22,1a.1.1,0,0,0,0,.13L7.3,56.8a1.66,1.66,0,0,0,1.09.62h.25a1.65,1.65,0,0,0,1.52-1.17m.3-.51-.24,0a1.33,1.33,0,0,0-.05-.34,1.83,1.83,0,0,0,.32.14Zm-.58-1.93a1.15,1.15,0,0,1,.41-.73l.87-.67.67.87a1,1,0,0,1,.22.8,1.15,1.15,0,0,1-.41.73,1.11,1.11,0,0,1-.55.22l.19-1.51a.08.08,0,0,0-.08-.1l-.35,0h0l-.06,0a.07.07,0,0,0,0,.06L10.56,55a1.1,1.1,0,0,1-.68-1.15M8.1,56l1.51.2a1.08,1.08,0,0,1-.35.47,1.06,1.06,0,0,1-.66.23H8.46a1.11,1.11,0,0,1-.73-.41l-.67-.87.86-.67a1.11,1.11,0,0,1,.67-.23h.14a1,1,0,0,1,.73.42,1.1,1.1,0,0,1,.22.52l-1.51-.19h0a.07.07,0,0,0-.06,0,.06.06,0,0,0,0,.06L8,55.89a.09.09,0,0,0,.08.1m9.39,2.91a1.63,1.63,0,0,0-.6-1.14l-1.24-1a.06.06,0,0,0-.05,0,.08.08,0,0,0-.07,0L14.5,58a1.74,1.74,0,0,0-.38,1.24,1.6,1.6,0,0,0,.2.64,1.68,1.68,0,0,0-.5-.07h-.17a1.7,1.7,0,0,0-1.14.61l-1,1.24a.08.08,0,0,0,0,.12l1.24,1a1.65,1.65,0,0,0,1.07.38H14a1.67,1.67,0,0,0,1.15-.6,1.76,1.76,0,0,0,.39-1l.47,0,.52.4.05,0h0l.06,0,.21-.28a.09.09,0,0,0,0-.13l-.55-.43,0-.38a1.67,1.67,0,0,0,1.26-1.8M14.7,62.21a1.13,1.13,0,0,1-.78.42h-.11a1.14,1.14,0,0,1-.73-.26l-.89-.73.73-.9a1.2,1.2,0,0,1,.78-.41h.12a1.15,1.15,0,0,1,.73.27,1.14,1.14,0,0,1,.35.51l-1.6.15a.09.09,0,0,0-.06,0,.14.14,0,0,0,0,.07l0,.35a.08.08,0,0,0,.09.08h0l1.6-.14a1.11,1.11,0,0,1-.26.57m.75-1.16a1.49,1.49,0,0,0-.14-.37,1.59,1.59,0,0,0,.38.07l0,.27Zm.73-.89L16,58.55a.09.09,0,0,0-.09-.08h0l-.35,0a.06.06,0,0,0-.06,0,.09.09,0,0,0,0,.07l.16,1.59a1.15,1.15,0,0,1-1-1,1.12,1.12,0,0,1,.26-.84l.73-.89.9.73A1.2,1.2,0,0,1,17,59a1.17,1.17,0,0,1-.78,1.21m16.2-21.55h-.94v.5h.94ZM18.63,43.92a1.62,1.62,0,0,0,1.36,0l.15-.06-.23-.49-.11,0a1.3,1.3,0,0,1-.49.11,1.25,1.25,0,0,1-.48-.11,2.09,2.09,0,0,0-.86-.18,2.19,2.19,0,0,0-.87.18,1.32,1.32,0,0,1-.4.11l.06.26h0a2.5,2.5,0,0,0,.07.26,1.76,1.76,0,0,0,.47-.13,1.64,1.64,0,0,1,.67-.14,1.58,1.58,0,0,1,.66.14m.2,2a2.09,2.09,0,0,0-.86-.18,2.21,2.21,0,0,0-.48.05l.27.51H18a1.58,1.58,0,0,1,.66.14,1.93,1.93,0,0,0,.68.14l.28,0v-.49s0,0,0-.07a1.27,1.27,0,0,1-.29,0,1.25,1.25,0,0,1-.48-.11M7.37,53.25A1.74,1.74,0,0,0,8.74,54h.15A.12.12,0,0,0,9,54l.08-.14a1.71,1.71,0,0,0,.14-1.54,1.73,1.73,0,0,0,1.33-.8l.09-.13a.14.14,0,0,0,0-.09l-.07-.14a1.75,1.75,0,0,0-1.27-.9,1.75,1.75,0,0,0,0-1.56l-.07-.13a.09.09,0,0,0-.08,0H8.87a1.69,1.69,0,0,0-1.34.65,1.75,1.75,0,0,0-1.37-.76H6a.09.09,0,0,0-.08,0l-.08.13a1.73,1.73,0,0,0-.14,1.55,1.72,1.72,0,0,0-1.33.8L4.3,51a.1.1,0,0,0,0,.09l.07.14a1.7,1.7,0,0,0,1.27.9,1.72,1.72,0,0,0,0,1.56l.07.14a.12.12,0,0,0,.08,0H6a1.69,1.69,0,0,0,1.34-.65m1.28.21a1.2,1.2,0,0,1-.89-.62.82.82,0,0,1-.1-.26l-.09-.33.12,0a1,1,0,0,0,.55-.34h0l.23.25a1.6,1.6,0,0,1,.16.23,1.23,1.23,0,0,1,0,1.09M9,50.76h0a1.16,1.16,0,0,1,.94.53,1.18,1.18,0,0,1-.94.46H9a1.45,1.45,0,0,1-.28,0l-.33-.1A1,1,0,0,0,8.48,51a.2.2,0,0,0,0-.11l.34-.07a1,1,0,0,1,.24,0m-1.27-.93a1.23,1.23,0,0,1,.12-.26A1.17,1.17,0,0,1,8.81,49a1.16,1.16,0,0,1-.09,1.07,1.24,1.24,0,0,1-.18.22l-.24.24A1.07,1.07,0,0,0,8,50.29a1.42,1.42,0,0,0-.36-.14Zm-.31.84a.54.54,0,0,1,.28.08.49.49,0,0,1,.23.33.54.54,0,0,1-.07.39.5.5,0,0,1-.32.23l-.12,0a.57.57,0,0,1-.28-.08.55.55,0,0,1-.23-.33A.48.48,0,0,1,7,50.92a.18.18,0,0,1,0-.07.59.59,0,0,1,.27-.17h.12m-1.2-1.74a1.18,1.18,0,0,1,1,.88l.08.33-.11,0a1.06,1.06,0,0,0-.56.34l-.23-.26A1.19,1.19,0,0,1,6.26,50a1.21,1.21,0,0,1,0-1.08m-.38,2.7h0a1.16,1.16,0,0,1-.94-.53,1.18,1.18,0,0,1,.94-.46h0a1.45,1.45,0,0,1,.28,0l.33.1a1,1,0,0,0-.06.65.45.45,0,0,0,0,.11l-.34.07-.24,0M7,52.81a1.18,1.18,0,0,1-.93.55,1.18,1.18,0,0,1,.09-1.08,1.73,1.73,0,0,1,.17-.21l.25-.24a1,1,0,0,0,.29.26.93.93,0,0,0,.36.14l-.11.33a1,1,0,0,1-.12.25"/><path class="cls-5" d="M16.73,49l-.32.66-.71.1.52.52-.13.72.64-.34.64.34-.12-.72.52-.52-.72-.1ZM15.9,24.85l.64-.34.64.34-.12-.72.52-.52-.72-.1-.32-.66-.32.66-.71.1.51.52ZM12.81,37.54l.64-.34.64.34L14,36.82l.52-.51-.72-.11-.32-.66-.32.66-.71.11.52.51Zm0-7,.64-.34.64.34L14,29.79l.52-.51-.72-.11-.32-.66-.32.66-.71.11.52.51Zm1.06,12.94-.32-.66-.32.66-.72.11.52.51-.13.73.65-.35.64.35-.13-.73.52-.51Zm26.71,1.35.64-.35.64.35-.12-.73.51-.51-.71-.11-.32-.66-.32.66-.72.11.52.51Zm-3-20,.64-.34.64.34-.12-.72.52-.52-.72-.1-.32-.66-.32.66-.71.1.51.52Zm3.09,12.69.64-.34.64.34-.12-.72.51-.51-.71-.11-.32-.66L41,36.2l-.72.11.52.51ZM22,54.09l-.32-.66-.32.66-.71.1.51.52-.12.72.64-.34.64.34-.12-.72.52-.52Zm5.66,3.25-.32-.66-.32.66-.72.11.52.51-.12.73.64-.35.64.35L27.9,58l.51-.51Zm5.66-3.25L33,53.43l-.32.66-.71.1.51.52-.12.72.64-.34.64.34-.12-.72.52-.52Zm7.31-23.57.64-.34.64.34-.12-.73.51-.51-.71-.11-.32-.66-.32.66-.72.11.52.51ZM38.35,49.69,38,49l-.32.66-.72.1.52.52-.12.72.64-.34.64.34-.12-.72.52-.52Z"/><polygon class="cls-12" points="25.83 9.58 25.16 11.13 24.8 11.13 24.13 9.58 24.52 9.58 24.99 10.69 25.47 9.58 25.83 9.58"/><polygon class="cls-12" points="27.16 10.84 27.16 11.13 25.96 11.13 25.96 9.58 27.13 9.58 27.13 9.87 26.32 9.87 26.32 10.2 27.04 10.2 27.04 10.48 26.32 10.48 26.32 10.84 27.16 10.84"/><path class="cls-12" d="M28.44,11.13l-.3-.43h-.33v.43h-.36V9.58h.67a.8.8,0,0,1,.36.07.57.57,0,0,1,.24.19.61.61,0,0,1,.08.3.53.53,0,0,1-.32.49l.35.5Zm-.09-1.19a.37.37,0,0,0-.25-.07h-.29v.54h.29a.37.37,0,0,0,.25-.07.29.29,0,0,0,0-.4"/><path class="cls-12" d="M30.11,10.8h-.73l-.13.33h-.37l.69-1.55h.36l.69,1.55h-.38ZM30,10.53l-.24-.6-.25.6Z"/><path class="cls-11" d="M74.59,16.82l-3.46,9.65a.66.66,0,0,1-.76.52H69.14c-.42,0-.62-.09-.75-.49l-3.48-9.68c-.15-.41,0-.61.41-.61h1.14c.77,0,1,.12,1.12.56l1.78,5.66a15.11,15.11,0,0,1,.38,1.82h.12a11.93,11.93,0,0,1,.38-1.8L72,16.77c.14-.44.35-.56,1.11-.56H74.2c.44,0,.54.2.39.61"/><path class="cls-11" d="M83,16.83v1c0,.45-.15.61-.62.61H78.13v2h3.49c.47,0,.62.15.62.6v1c0,.47-.15.62-.62.62H78.13v2.07h4.4c.46,0,.62.16.62.62v1c0,.47-.16.62-.62.62H76.28c-.46,0-.62-.15-.62-.62V16.83c0-.47.16-.62.62-.62h6.1c.47,0,.62.15.62.62"/><path class="cls-11" d="M92.93,19.7a3.16,3.16,0,0,1-1.76,3.11c.12.17.21.35.32.53l1.56,3c.2.37.14.66-.32.66H91.52c-.78,0-1-.13-1.28-.6l-1.12-2.33a1.32,1.32,0,0,0-1.5-.9H87v3.2c0,.48-.16.63-.62.63H85.14c-.45,0-.62-.15-.62-.63V16.83c0-.47.17-.62.62-.62h4.21a3.26,3.26,0,0,1,3.58,3.49m-3.82-1.24H87V21h2.12a1.14,1.14,0,0,0,1.25-1.25,1.13,1.13,0,0,0-1.25-1.24"/><path class="cls-11" d="M103.2,27h-1.13c-.76,0-1-.12-1.13-.57L100.48,25H96.72l-.48,1.42c-.15.45-.35.57-1.11.57h-1c-.45,0-.56-.2-.41-.61l3.63-9.65a.65.65,0,0,1,.76-.52h1.17c.42,0,.62.09.76.49l3.63,9.68c.15.41,0,.61-.42.61m-4.53-8.52h-.15a7.49,7.49,0,0,1-.35,2.16L97.38,23h2.46l-.79-2.35a8.82,8.82,0,0,1-.38-2.17"/><path class="cls-11" d="M108.55,16c2.24,0,3.65.91,4.25,2.55.17.43,0,.64-.38.79l-1.17.41c-.46.14-.62.06-.79-.38a1.8,1.8,0,0,0-1.91-1.11c-1.32,0-2,.61-2,1.81v3.1c0,1.2.69,1.8,2,1.8a1.8,1.8,0,0,0,1.91-1.1c.17-.45.36-.55.79-.38l1.17.41c.42.15.55.36.38.78-.6,1.65-2,2.55-4.25,2.55-2.87,0-4.48-1.56-4.48-4.08V20.07c0-2.52,1.61-4.09,4.48-4.09"/><path class="cls-11" d="M122.54,19.7a3.14,3.14,0,0,1-1.76,3.11c.12.17.21.35.32.53l1.56,3c.2.37.14.66-.32.66h-1.21c-.77,0-1-.13-1.27-.6l-1.13-2.33a1.32,1.32,0,0,0-1.5-.9h-.62v3.2c0,.48-.17.63-.62.63h-1.23c-.46,0-.63-.15-.63-.63V16.83c0-.47.17-.62.63-.62H119a3.26,3.26,0,0,1,3.58,3.49m-3.82-1.24h-2.11V21h2.11A1.14,1.14,0,0,0,120,19.7a1.14,1.14,0,0,0-1.26-1.24"/><path class="cls-11" d="M128.4,25c1.29,0,1.93-.62,1.93-1.72V16.83c0-.47.15-.62.62-.62h1.23c.46,0,.63.15.63.62v6.36c0,2.45-1.52,4-4.41,4s-4.39-1.58-4.39-4V16.83c0-.47.15-.62.63-.62h1.23c.45,0,.61.15.61.62v6.42c0,1.1.65,1.72,1.92,1.72"/><path class="cls-11" d="M142.21,16.83v.88a1,1,0,0,1-.21.63l-4.71,6.39h4.38c.45,0,.62.16.62.62v1c0,.47-.17.62-.62.62h-6.91c-.47,0-.62-.15-.62-.62v-.89a1,1,0,0,1,.2-.62l4.72-6.4h-4.22c-.47,0-.62-.16-.62-.61v-1c0-.47.15-.62.62-.62h6.75c.46,0,.62.15.62.62"/><path class="cls-11" d="M74,36.32v1.86c0,2.17-1.46,3.63-4.16,3.63S65.62,40.35,65.62,38V34.42c0-2.37,1.44-3.81,4.16-3.81,2.32,0,3.51.91,4,2.6.08.22,0,.31-.18.39l-.47.17c-.22.06-.31,0-.4-.19-.41-1.32-1.24-1.95-3-1.95-2,0-3.06,1-3.06,2.77V38c0,1.76,1.07,2.8,3.08,2.8s3.08-1,3.08-2.61V37H70c-.23,0-.31-.07-.31-.3v-.42c0-.23.08-.31.31-.31h3.7c.23,0,.31.08.31.31"/><path class="cls-11" d="M79.74,30.61c2.7,0,4.16,1.44,4.16,3.81V38c0,2.37-1.46,3.81-4.16,3.81S75.57,40.37,75.57,38V34.42c0-2.37,1.45-3.81,4.17-3.81m0,1c-2,0-3.08,1-3.08,2.79V38c0,1.76,1.08,2.8,3.08,2.8s3.07-1,3.07-2.8V34.42c0-1.76-1.08-2.79-3.07-2.79"/><path class="cls-11" d="M93.46,33.58A2.37,2.37,0,0,1,92,36v0a2.46,2.46,0,0,1,1.81,2.66c0,1.87-1.24,2.9-3.14,2.9H86.25c-.23,0-.3-.08-.3-.3V31.13c0-.23.07-.31.3-.31h4.28c1.85,0,2.93,1,2.93,2.76M90.4,31.85H87v3.77H90.4a1.72,1.72,0,0,0,1.94-1.9,1.7,1.7,0,0,0-1.94-1.87m.25,4.75H87v4h3.61a2,2,0,1,0,0-4"/><path class="cls-11" d="M96,30.82h.5c.23,0,.29.08.29.31V41.3c0,.22-.06.3-.29.3H96c-.23,0-.3-.08-.3-.3V31.13c0-.23.07-.31.3-.31"/><path class="cls-11" d="M105.91,31.13v.42c0,.23-.08.31-.29.31h-5.36v3.76h4.68c.21,0,.29.08.29.3v.43c0,.22-.08.3-.29.3h-4.68v3.92h5.55c.22,0,.29.07.29.3v.43c0,.22-.07.3-.29.3H99.47c-.23,0-.3-.08-.3-.3V31.13c0-.23.07-.31.3-.31h6.15c.21,0,.29.08.29.31"/><path class="cls-11" d="M115.65,34a2.76,2.76,0,0,1-2.44,3,2.06,2.06,0,0,1,1,1.05l1.7,3.31c.11.16.08.3-.15.3h-.5c-.36,0-.48-.05-.59-.27l-1.47-2.93A2,2,0,0,0,111,37.08H109V41.3c0,.22-.06.3-.29.3h-.5c-.23,0-.3-.08-.3-.3V31.13c0-.23.07-.31.3-.31h4.29A2.91,2.91,0,0,1,115.65,34m-3.29-2.11H109V36h3.4A1.93,1.93,0,0,0,114.51,34a1.93,1.93,0,0,0-2.15-2.11"/><path class="cls-11" d="M125.76,31.13V41.3c0,.22-.07.3-.3.3H125a.29.29,0,0,1-.32-.17l-4.84-7c-.56-.83-1-1.84-1.21-2.17h-.07c0,.42.17,1.56.17,2.69v6.3c0,.22-.07.3-.29.3h-.47c-.22,0-.3-.08-.3-.3V31.13c0-.23.08-.31.3-.31h.49a.33.33,0,0,1,.32.15l4.72,6.82c.62.91,1.07,1.93,1.35,2.29h0c0-.48-.18-1.62-.18-2.82V31.11c0-.21.08-.29.31-.29h.47c.23,0,.3.08.3.31"/><path class="cls-11" d="M132,30.61c2.71,0,4.16,1.44,4.16,3.81V38c0,2.37-1.45,3.81-4.16,3.81s-4.17-1.44-4.17-3.81V34.42c0-2.37,1.46-3.81,4.17-3.81m0,1c-2,0-3.08,1-3.08,2.79V38c0,1.76,1.08,2.8,3.08,2.8s3.07-1,3.07-2.8V34.42c0-1.76-1.08-2.79-3.07-2.79"/><path class="cls-11" d="M73.85,49.44V52.2c0,2.48-1.58,4-4.4,4h-3.2c-.23,0-.31-.08-.31-.3V45.74c0-.23.08-.31.31-.31h3.2c2.82,0,4.4,1.54,4.4,4m-4.4-3H67v8.71h2.42c2.12,0,3.29-1.08,3.29-3V49.44c0-1.9-1.17-3-3.29-3"/><path class="cls-11" d="M82.59,45.74v.42c0,.23-.07.3-.28.3H77v3.77h4.67c.21,0,.29.08.29.3V51c0,.23-.08.3-.29.3H77v3.92H82.5c.21,0,.29.08.29.3v.43c0,.23-.08.3-.29.3H76.16c-.23,0-.31-.07-.31-.3V45.74c0-.23.08-.31.31-.31h6.15c.21,0,.28.08.28.31"/><path class="cls-11" d="M85.64,45.74v9.44h5.15c.21,0,.29.08.29.3v.43c0,.23-.08.3-.29.3H84.85c-.22,0-.3-.07-.3-.3V45.74c0-.23.08-.31.3-.31h.51c.22,0,.28.08.28.31"/><path class="cls-11" d="M102.45,45.74v.42c0,.23-.08.3-.29.3H96.8v3.77h4.67c.22,0,.29.08.29.3V51c0,.23-.07.3-.29.3H96.8v3.92h5.56c.21,0,.29.08.29.3v.43c0,.23-.08.3-.29.3H96c-.23,0-.3-.07-.3-.3V45.74c0-.23.07-.31.3-.31h6.15c.21,0,.29.08.29.31"/><path class="cls-11" d="M107.93,45.22a3.87,3.87,0,0,1,4,2.34c.1.2,0,.3-.17.39l-.47.22c-.2.09-.27.06-.39-.14a2.94,2.94,0,0,0-3-1.76c-1.79,0-2.8.71-2.8,2,0,1.57,1.54,1.81,3.14,2,1.82.21,3.82.56,3.82,3,0,2-1.43,3.18-4.13,3.18-2.2,0-3.42-.85-4.12-2.61-.07-.23,0-.32.19-.41l.47-.16c.21-.08.28,0,.39.18a3,3,0,0,0,3.07,2c2,0,3-.7,3-2.12s-1.43-1.78-3-2c-1.88-.21-4-.53-4-3,0-1.86,1.41-3.11,3.92-3.11"/><path class="cls-11" d="M120.67,45.74v.42c0,.23-.07.3-.3.3h-3.06v9.45c0,.23-.08.3-.31.3h-.5c-.22,0-.3-.07-.3-.3V46.46h-3.07c-.23,0-.3-.07-.3-.3v-.42c0-.23.07-.31.3-.31h7.24c.23,0,.3.08.3.31"/><path class="cls-11" d="M129,56.21h-.44c-.37,0-.49-.06-.55-.27l-1.14-2.89h-4.75L121,55.94c-.06.21-.16.27-.53.27h-.41c-.23,0-.27-.11-.19-.29l4.06-10.27a.32.32,0,0,1,.38-.26h.46c.21,0,.32,0,.39.24l4.07,10.29c.08.18,0,.29-.21.29m-4.46-9.77h-.08a3.75,3.75,0,0,1-.18,1l-1.84,4.66h4.13l-1.82-4.66a4,4,0,0,1-.21-1"/><path class="cls-11" d="M138.49,49.44V52.2c0,2.48-1.57,4-4.4,4h-3.2c-.23,0-.3-.08-.3-.3V45.74c0-.23.07-.31.3-.31h3.2c2.83,0,4.4,1.54,4.4,4m-4.4-3h-2.41v8.71h2.41c2.13,0,3.3-1.08,3.3-3V49.44c0-1.9-1.17-3-3.3-3"/><path class="cls-11" d="M144.36,45.22c2.7,0,4.15,1.44,4.15,3.81v3.58c0,2.37-1.45,3.81-4.15,3.81s-4.18-1.44-4.18-3.81V49c0-2.37,1.46-3.81,4.18-3.81m0,1c-2,0-3.09,1-3.09,2.79v3.58c0,1.76,1.08,2.8,3.09,2.8s3.06-1,3.06-2.8V49c0-1.76-1.08-2.79-3.06-2.79"/></svg>